<svg width="32" height="32" viewBox="0 0 32 32" fill="none" xmlns="http://www.w3.org/2000/svg">
<path d="M3.5 11.8333C3.5 7.23096 7.23096 3.5 11.8333 3.5H20.1667C24.769 3.5 28.5 7.23096 28.5 11.8333V20.1667C28.5 24.769 24.769 28.5 20.1667 28.5H11.8333C7.23096 28.5 3.5 24.769 3.5 20.1667V11.8333Z" fill="#00ED65"/>
<path d="M23.0082 11.6176C22.6015 11.2108 21.9419 11.2108 21.5351 11.6176L14.906 18.2467L10.4866 13.8273C10.0798 13.4205 9.42023 13.4205 9.01343 13.8273C8.60663 14.2341 8.60663 14.8937 9.01343 15.3004L14.1694 20.4564C14.5762 20.8632 15.2358 20.8632 15.6426 20.4564L23.0082 13.0907C23.415 12.6839 23.415 12.0244 23.0082 11.6176Z" fill="white"/>
</svg>
