<svg width="32" height="32" viewBox="0 0 32 32" fill="none" xmlns="http://www.w3.org/2000/svg">
<path d="M3.5 11.8333C3.5 7.23096 7.23096 3.5 11.8333 3.5H20.1667C24.769 3.5 28.5 7.23096 28.5 11.8333V20.1667C28.5 24.769 24.769 28.5 20.1667 28.5H11.8333C7.23096 28.5 3.5 24.769 3.5 20.1667V11.8333Z" fill="#F75470"/>
<path d="M21.7046 10.2954C21.3108 9.90155 20.6723 9.90155 20.2785 10.2954L16 14.5737L11.7215 10.2954C11.3277 9.90156 10.6892 9.90156 10.2954 10.2954C9.90155 10.6892 9.90155 11.3277 10.2954 11.7215L14.5738 15.9997L10.2954 20.278C9.90161 20.6718 9.90161 21.3103 10.2954 21.7041C10.6893 22.0979 11.3278 22.0979 11.7216 21.7041L16 17.4258L20.2784 21.7041C20.6723 22.0979 21.3108 22.0979 21.7046 21.7041C22.0984 21.3103 22.0984 20.6718 21.7046 20.278L17.4262 15.9997L21.7046 11.7214C22.0985 11.3276 22.0985 10.6892 21.7046 10.2954Z" fill="white"/>
</svg>
