<svg width="161" height="131" viewBox="0 0 161 131" fill="none" xmlns="http://www.w3.org/2000/svg">
<path d="M151.152 0.771766L149.025 7.09841C148.256 9.3845 147.466 11.7118 146.04 13.6535C145.608 13.2365 145.787 12.5197 145.995 11.9562L149.769 1.76674C149.999 1.14453 150.615 0.384952 151.152 0.771766Z" fill="#4C494A"/>
<path d="M156.546 6.56335C152.94 9.85864 149.735 13.5966 147.027 17.6675C146.732 18.1107 146.441 18.7051 146.749 19.1395C148.697 17.289 150.407 15.2027 152.116 13.118C154.156 10.629 156.194 8.142 158.635 6.06083C158.071 5.49881 157.134 6.02654 156.546 6.56335Z" fill="#4C494A"/>
<path d="M74.3072 24.9178C73.7467 25.2466 73.1181 25.7616 73.2468 26.4004C81.5341 22.5104 90.8194 20.7879 99.9439 21.4477C103.606 21.7125 107.224 22.3513 110.843 22.9902C113.942 23.5373 117.042 24.0846 120.171 24.3972C127.27 25.1066 134.489 24.5927 141.418 22.8846C140.951 22.1486 139.882 22.2116 139.022 22.3387C130.497 23.5988 121.885 22.4886 113.297 21.3815L113.295 21.3812C110.964 21.0807 108.635 20.7804 106.309 20.5279C95.4164 19.3449 83.7673 19.3686 74.3072 24.9178Z" fill="#4C494A"/>
<path d="M85.8988 45.0187L124.873 42.7047C125.698 42.6557 126.675 42.5099 127.036 41.7633C112.004 41.7581 96.9719 42.5993 82.0338 44.2818C83.0751 45.1352 84.5571 45.0984 85.8988 45.0187Z" fill="#4C494A"/>
<path d="M84.8669 101.009C72.2004 102.008 59.496 102.523 46.7904 102.551C44.3301 102.556 41.8217 102.536 39.4849 101.763C39.7392 101.194 40.483 101.087 41.1033 101.059C56.4209 100.384 71.7514 100.005 87.0835 99.9222C86.7806 100.742 85.7355 100.94 84.8669 101.009Z" fill="#4C494A"/>
<path d="M39.1388 109.31C49.475 109.62 59.8289 109.331 70.1318 108.444C70.5297 108.41 71.074 108.091 70.8388 107.767C59.6936 107.564 48.5437 107.623 37.4012 107.944C37.0365 108.745 38.2615 109.283 39.1388 109.31Z" fill="#4C494A"/>
<path d="M135.864 36.2514C129.888 37.2082 123.822 37.4183 117.774 37.6267L85.2534 38.7471C84.0067 38.79 82.6272 38.7881 81.6898 37.9616C82.333 37.5254 83.1474 37.4572 83.9218 37.4034C100.411 36.2577 116.933 35.5889 133.46 35.3981C134.354 35.3878 135.42 35.4722 135.864 36.2514Z" fill="#4C494A"/>
<path d="M43.7285 96.212C57.4035 96.2197 71.0787 95.7494 84.721 94.802C85.5166 94.7468 86.4984 94.5444 86.703 93.7705C72.2281 93.8835 57.7557 94.3165 43.2998 95.0691C43.0628 95.0814 42.7929 95.1109 42.6537 95.3039C42.3113 95.7789 43.1445 96.2116 43.7285 96.212Z" fill="#4C494A"/>
<path d="M144.41 67.7865C144.71 67.7763 145.029 67.7715 145.285 67.9288C145.541 68.0861 145.679 68.4705 145.481 68.6963C136.938 69.7213 128.366 70.4945 119.778 71.0147C119.132 71.0538 118.45 71.0846 117.872 70.7903C117.722 70.4329 118.228 70.1749 118.611 70.1186C127.159 68.8609 135.776 68.082 144.41 67.7865Z" fill="#4C494A"/>
<path d="M145.308 62.9226C145.578 62.4853 144.812 62.1694 144.302 62.2199L118.942 64.7313C118.361 64.7888 117.6 65.054 117.666 65.6358C126.929 65.4011 136.175 64.4936 145.308 62.9226Z" fill="#4C494A"/>
<path d="M65.6382 83.4441C66.1342 83.457 66.8139 83.6897 66.706 84.176L41.6996 86.1223C41.1465 86.1654 40.4835 86.1583 40.175 85.6954C40.1872 85.0756 40.9603 84.8193 41.5723 84.7371C49.5433 83.6672 57.599 83.2344 65.6382 83.4441Z" fill="#4C494A"/>
<path d="M122.856 80.0998C122.784 79.5551 123.506 79.3063 124.051 79.2618C131.313 78.6701 138.593 78.3134 145.878 78.1925C146.17 78.1876 146.484 78.1895 146.723 78.3579C146.963 78.5262 147.054 78.9289 146.822 79.107C146.72 79.1852 146.586 79.2012 146.458 79.2144C138.621 80.0248 130.732 80.3208 122.856 80.0998Z" fill="#4C494A"/>
<path d="M82.7271 30.752C82.3348 30.9387 82.0764 31.4746 82.3343 31.8252C82.5283 32.089 82.9 32.1264 83.2263 32.1398C92.5554 32.5234 101.918 32.0919 111.172 30.852C111.672 30.7851 112.299 30.5864 112.33 30.081L92.9057 30.798C89.9387 30.9075 86.9579 31.0165 84.0088 30.6718L83.9954 30.6702C83.5681 30.6202 83.1153 30.5673 82.7271 30.752Z" fill="#4C494A"/>
<path d="M64.7449 28.0955C62.0183 27.2434 59.3489 26.2071 56.7606 24.9958C56.2608 24.7619 55.6817 24.1771 56.0561 23.7705C56.2807 23.5265 56.6758 23.6046 56.9917 23.7035C60.7136 24.8691 64.3533 26.2987 67.8748 27.9784C67.0385 28.6825 65.787 28.4212 64.7449 28.0955Z" fill="#4C494A"/>
<path d="M16.4851 107.177C13.7061 104.357 10.8206 101.642 7.83693 99.0409C7.41325 98.6716 6.5688 98.4255 6.45911 98.978C9.40343 102.444 12.7975 105.524 16.5284 108.115C16.9271 108.102 16.7657 107.462 16.4851 107.177Z" fill="#4C494A"/>
<path d="M72.1781 30.8241C74.3429 42.343 76.6116 54.4145 71.4855 64.7428C71.0311 65.6586 70.2638 66.6831 69.2576 66.5219C62.203 65.3919 54.9087 65.795 48.0202 67.6956C44.2535 68.7349 40.48 70.3034 37.8274 73.1827C34.437 76.8628 33.3715 82.1339 33.1779 87.1432C33.11 88.9006 33.1313 90.6641 33.1527 92.4268C33.1922 95.6883 33.2316 98.9469 32.7053 102.158C31.9252 106.917 29.8871 111.463 26.8554 115.204C24.1791 118.507 20.3603 121.311 16.1216 121.178C15.3467 121.373 16.3711 122.439 17.1673 122.372C24.7138 121.743 30.5454 115.006 32.9435 107.794C34.7936 102.23 35.0904 96.3307 35.3867 90.4433C35.4745 88.6995 35.5622 86.9567 35.6901 85.224C35.875 82.7221 36.1639 80.164 37.2808 77.9198C38.8678 74.7307 41.9603 72.5395 45.2144 71.1132C53.6608 67.4112 63.3299 68.1448 72.4392 69.5494C73.7938 69.7583 75.1511 69.9806 76.5102 70.2032C84.2911 71.4776 92.1342 72.7622 99.8936 71.5969C96.6548 75.2753 94.4159 79.8327 93.4802 84.6517C92.8202 88.0507 92.7927 91.5653 92.7653 95.0662C92.726 100.088 92.687 105.082 90.7814 109.666C88.0491 116.24 81.8836 120.786 75.4074 123.693C57.6309 131.674 36.81 129.374 18.3491 123.153C35.2617 131.83 55.8018 133.065 73.6247 126.476C81.3296 123.628 88.9534 118.92 92.3055 111.394C93.5376 108.628 97.4637 109.275 100.489 109.773L100.711 109.809C106.223 110.714 111.647 109.191 117.102 107.659C119.991 106.848 122.89 106.034 125.814 105.578C129.134 105.06 132.497 105.006 135.862 104.952C138.479 104.91 141.097 104.868 143.698 104.607C149.643 104.011 155.864 102 159.491 97.2333C160.062 96.4817 160.58 95.5933 160.49 94.6519C160.312 92.8139 158.102 92.0172 156.278 91.7794C153.849 91.4625 151.387 91.3948 148.944 91.5777C154.719 80.4107 155.034 67.2929 154.968 54.7103C154.908 43.1782 154.134 30.4055 145.996 22.2674C152.342 34.1942 153.267 48.246 152.928 61.764C152.716 70.2248 152.017 78.8628 148.661 86.6266C145.306 94.3904 138.856 101.23 130.626 103.061C128.561 103.52 126.23 103.608 124.509 102.373C122.994 101.287 122.274 99.4026 121.857 97.5807C121.138 94.4361 121.085 91.2036 121.033 87.9666C120.991 85.375 120.949 82.7806 120.565 80.2263C119.7 74.4817 116.189 68.347 110.458 67.5495C108.187 67.2336 105.93 67.8074 103.687 68.3775C103.114 68.5231 102.542 68.6684 101.972 68.7987C92.297 71.0058 82.2244 68.8882 72.5295 66.7729C77.9495 54.1321 77.5366 39.1069 71.4305 26.7855C71.67 28.1211 71.9232 29.468 72.1778 30.8226L72.1779 30.8234L72.1781 30.8241Z" fill="#4C494A"/>
<path d="M66.9736 23.8298C64.8074 20.1424 63.0817 16.1944 61.8453 12.0973C61.7652 11.8319 61.6895 11.5343 61.8155 11.2875C61.9415 11.0408 62.3667 10.9666 62.4728 11.2226L67.2062 22.6442C67.3854 23.0765 67.4353 23.7631 66.9736 23.8298Z" fill="#4C494A"/>
<path d="M144.603 121.293C144.818 121.352 145.098 121.205 145.082 120.982C143.169 117.402 141.065 113.925 138.784 110.569C138.636 110.352 138.454 110.114 138.193 110.09C137.868 110.06 137.607 110.403 137.598 110.73C137.589 111.057 137.757 111.36 137.92 111.643C139.776 114.85 141.842 117.934 144.1 120.869C144.236 121.046 144.388 121.233 144.603 121.293Z" fill="#4C494A"/>
<path d="M13.1073 110.164C9.88829 108.979 6.82416 107.37 4.01797 105.393C3.51779 105.04 2.97791 104.366 3.37859 103.903C6.43855 105.584 9.48493 107.289 12.5173 109.02C12.9467 109.265 13.4349 109.793 13.1073 110.164Z" fill="#4C494A"/>
<path d="M1.19096 114.807C0.991863 114.802 0.770903 114.805 0.62463 114.941C0.411758 115.138 0.492188 115.518 0.71064 115.709C0.929092 115.901 1.23196 115.953 1.51846 115.998C5.61571 116.628 9.75034 117.013 13.8932 117.151C14.5508 117.173 15.3542 117.105 15.6394 116.51C10.888 115.503 6.04526 114.932 1.19096 114.807Z" fill="#4C494A"/>
<path d="M65.7116 25.3698C63.3303 22.771 61.1337 20.0015 59.144 17.0895C59.0354 16.9305 58.9222 16.749 58.9553 16.5591C59.0051 16.2735 59.3757 16.1463 59.6479 16.2433C59.92 16.3402 60.1102 16.5826 60.2851 16.8134L65.5618 23.7797C65.9284 24.2637 66.2409 25.0743 65.7116 25.3698Z" fill="#4C494A"/>
<path fill-rule="evenodd" clip-rule="evenodd" d="M71.506 79.0745C71.5771 78.5431 71.4638 77.9887 71.19 77.5285C70.7627 77.5795 70.4639 78.0047 70.386 78.4295C70.3271 78.7508 70.3617 79.0779 70.3963 79.4046C70.4075 79.51 70.4186 79.6153 70.4266 79.7204C70.5158 80.8902 70.1989 82.0874 69.5431 83.0584C70.4797 83.5074 70.4387 84.7334 70.4018 85.8386C70.3958 86.0182 70.3899 86.1947 70.3883 86.3641C70.3768 87.5998 70.8113 88.8568 71.6744 89.7379C72.5375 90.6189 73.8411 91.0803 75.0448 90.822C77.1269 90.3752 79.2809 90.2678 81.3969 90.5053L81.4719 90.5138C82.0961 90.5844 82.7619 90.6598 83.3045 90.3494C83.8458 90.0398 84.1249 89.4227 84.3408 88.836C85.447 85.8287 85.7882 82.5992 86.0473 79.4039C86.1901 77.6433 86.1465 75.527 84.6707 74.5655C83.8908 74.0573 82.9023 74.0283 81.973 74.0584C79.2575 74.1463 76.554 74.6001 73.9577 75.4038C73.4363 75.5651 72.8868 75.7632 72.5585 76.2006C72.2301 76.6381 72.2637 77.3862 72.7558 77.6227C72.6076 78.2715 72.124 78.8333 71.506 79.0745ZM72.9713 88.0429C72.6586 88.179 72.2294 88.1109 72.0733 87.8066L79.1881 77.9347C79.707 77.2148 80.2448 76.4768 80.9951 76.0056C81.7454 75.5343 82.7691 75.3885 83.5009 75.8882C84.5487 76.6036 84.4998 78.1459 84.304 79.4028C83.9374 81.7561 83.46 84.092 82.8739 86.4001C82.7899 86.7305 82.685 87.0885 82.4059 87.2829C82.1818 87.439 81.8925 87.4547 81.6199 87.4651L75.3445 87.7043C75.1987 87.7098 75.2285 87.475 75.3127 87.3553L81.1822 79.0078C81.6991 78.2727 82.2816 77.4891 83.1434 77.2418L83.0376 76.5868C81.6051 76.7071 80.5955 78.0005 79.761 79.1757C77.7978 81.9405 75.7819 84.6675 73.7147 87.3547C73.5063 87.6256 73.284 87.9068 72.9713 88.0429ZM74.1742 80.9754L77.112 77.2314C77.8093 76.3427 78.8411 75.3508 79.8922 75.7585C77.0855 78.6908 74.5803 81.9139 72.4293 85.3601C72.3057 85.5582 72.1704 85.7683 71.9567 85.8609C71.7429 85.9535 71.4339 85.8552 71.4008 85.6238C71.3883 85.5361 71.4166 85.4481 71.446 85.3645C72.0199 83.7302 73.1061 82.3366 74.1742 80.9754ZM71.7604 82.2459C71.3505 82.1763 71.396 81.5659 71.5733 81.1884C72.1072 80.0517 72.8374 79.0212 73.5636 77.9975C73.9374 77.4707 74.3265 76.9291 74.8775 76.5938C75.4284 76.2584 76.1889 76.1815 76.6917 76.586C74.9929 78.0594 73.5368 79.8142 72.4002 81.7578C72.2554 82.0055 72.0424 82.2938 71.7604 82.2459Z" fill="#4C494A"/>
<path d="M138.51 124.409C137.127 121.426 135.992 118.327 135.121 115.155C134.998 114.706 134.879 114.247 134.898 113.782C134.909 113.493 135.051 113.14 135.338 113.138C135.608 113.136 135.758 113.444 135.843 113.701L139.516 124.877C139.289 125.28 138.704 124.828 138.51 124.409Z" fill="#4C494A"/>
<path d="M130.564 115.681C130.153 118.132 130.127 120.647 130.488 123.105C130.611 123.938 130.836 124.856 131.543 125.31L131.54 114.377C130.947 114.369 130.663 115.095 130.564 115.681Z" fill="#4C494A"/>
<path d="M142.883 14.6329L143.815 6.6124C143.836 6.43557 143.868 6.2383 144.01 6.1323C144.379 5.85805 144.749 6.48529 144.779 6.94486C144.986 10.1119 144.531 13.3209 143.452 16.3043C142.849 16.0978 142.81 15.2683 142.883 14.6329Z" fill="#4C494A"/>
<path d="M41.1101 79.6522C40.8864 79.6762 40.6351 79.7159 40.505 79.9002C40.3332 80.1435 40.4944 80.5074 40.754 80.6526C41.0136 80.7977 41.3284 80.7861 41.6251 80.77C49.0125 80.3688 56.3815 79.6274 63.7013 78.5488C63.8219 78.531 63.952 78.5084 64.0362 78.4198C64.34 78.0998 63.6942 77.7428 63.2547 77.7703C55.8606 78.2342 48.4767 78.8617 41.1101 79.6522Z" fill="#4C494A"/>
</svg>
