<svg width="335" height="336" viewBox="0 0 335 336" fill="none" xmlns="http://www.w3.org/2000/svg">
<path d="M286.343 59.6763L282.779 70.2856C281.491 74.1192 280.168 78.0218 277.779 81.278C277.057 80.5787 277.355 79.3766 277.705 78.4317L284.025 61.3448C284.411 60.3014 285.443 59.0277 286.343 59.6763Z" fill="#F75470"/>
<path d="M295.378 69.3884C289.337 74.9143 283.969 81.1826 279.432 88.0092C278.938 88.7524 278.451 89.7491 278.967 90.4775C282.231 87.3744 285.095 83.8759 287.956 80.38C291.373 76.2062 294.787 72.0356 298.876 68.5457C297.932 67.6032 296.362 68.4882 295.378 69.3884Z" fill="#F75470"/>
<path d="M157.627 100.167C156.688 100.719 155.635 101.582 155.851 102.653C169.732 96.1304 185.285 93.2418 200.568 94.3483C206.702 94.7924 212.763 95.8635 218.824 96.9349C224.016 97.8524 229.208 98.7702 234.448 99.2944C246.34 100.484 258.432 99.6221 270.037 96.7578C269.255 95.5236 267.465 95.6292 266.024 95.8424C251.745 97.9554 237.32 96.0937 222.935 94.2373L222.932 94.2368C219.027 93.7329 215.125 93.2293 211.23 92.8058C192.985 90.822 173.473 90.8618 157.627 100.167Z" fill="#F75470"/>
<path d="M177.043 133.875L242.325 129.995C243.706 129.912 245.344 129.668 245.947 128.416C220.769 128.407 195.59 129.818 170.569 132.639C172.313 134.07 174.796 134.009 177.043 133.875Z" fill="#F75470"/>
<path d="M175.315 227.766C154.098 229.442 132.818 230.305 111.536 230.352C107.415 230.361 103.214 230.327 99.2996 229.031C99.7256 228.077 100.972 227.897 102.011 227.851C127.668 226.718 153.346 226.082 179.027 225.944C178.52 227.319 176.769 227.651 175.315 227.766Z" fill="#F75470"/>
<path d="M98.7201 241.686C116.033 242.206 133.376 241.721 150.633 240.234C151.3 240.177 152.211 239.643 151.817 239.099C133.149 238.759 114.473 238.857 95.8095 239.395C95.1987 240.739 97.2506 241.642 98.7201 241.686Z" fill="#F75470"/>
<path d="M260.735 119.173C250.725 120.777 240.564 121.13 230.433 121.479L175.962 123.358C173.874 123.43 171.563 123.427 169.993 122.041C171.07 121.309 172.434 121.195 173.731 121.105C201.351 119.183 229.025 118.062 256.709 117.742C258.206 117.725 259.992 117.866 260.735 119.173Z" fill="#F75470"/>
<path d="M106.408 219.722C129.313 219.735 152.219 218.946 175.07 217.358C176.403 217.265 178.047 216.926 178.39 215.628C154.145 215.818 129.903 216.544 105.69 217.806C105.293 217.826 104.841 217.876 104.608 218.199C104.034 218.996 105.43 219.722 106.408 219.722Z" fill="#F75470"/>
<path d="M275.05 172.055C275.552 172.038 276.087 172.03 276.515 172.294C276.943 172.557 277.175 173.202 276.843 173.58C262.534 175.299 248.175 176.596 233.791 177.468C232.708 177.534 231.566 177.586 230.598 177.092C230.347 176.493 231.195 176.06 231.836 175.966C246.153 173.857 260.588 172.55 275.05 172.055Z" fill="#F75470"/>
<path d="M276.553 163.898C277.005 163.165 275.722 162.635 274.868 162.72L232.39 166.932C231.418 167.028 230.143 167.473 230.253 168.448C245.768 168.055 261.255 166.533 276.553 163.898Z" fill="#F75470"/>
<path d="M143.106 198.311C143.937 198.333 145.076 198.723 144.895 199.539L103.009 202.803C102.083 202.875 100.972 202.863 100.456 202.087C100.476 201.047 101.771 200.618 102.796 200.48C116.148 198.686 129.641 197.96 143.106 198.311Z" fill="#F75470"/>
<path d="M238.947 192.703C238.826 191.79 240.035 191.373 240.949 191.298C253.112 190.306 265.307 189.708 277.508 189.505C277.997 189.497 278.523 189.5 278.924 189.782C279.325 190.065 279.478 190.74 279.089 191.039C278.919 191.17 278.693 191.196 278.48 191.219C265.353 192.578 252.138 193.074 238.947 192.703Z" fill="#F75470"/>
<path d="M171.73 109.951C171.073 110.264 170.64 111.163 171.072 111.751C171.397 112.193 172.02 112.256 172.567 112.278C188.193 112.921 203.874 112.198 219.376 110.119C220.213 110.006 221.264 109.673 221.315 108.826L188.78 110.028C183.81 110.212 178.817 110.394 173.877 109.816L173.855 109.814C173.139 109.73 172.381 109.641 171.73 109.951Z" fill="#F75470"/>
<path d="M141.61 105.496C137.043 104.067 132.572 102.329 128.237 100.298C127.399 99.9059 126.429 98.9253 127.056 98.2435C127.433 97.8343 128.094 97.9652 128.624 98.1311C134.858 100.086 140.954 102.483 146.853 105.3C145.452 106.48 143.356 106.042 141.61 105.496Z" fill="#F75470"/>
<path d="M60.775 238.11C56.1202 233.38 51.287 228.828 46.2894 224.466C45.5797 223.847 44.1652 223.434 43.9815 224.361C48.9133 230.172 54.5983 235.337 60.8475 239.683C61.5155 239.661 61.245 238.588 60.775 238.11Z" fill="#F75470"/>
<path d="M154.061 110.072C157.687 129.388 161.487 149.631 152.901 166.951C152.14 168.486 150.854 170.205 149.169 169.934C137.352 168.039 125.135 168.715 113.596 171.902C107.287 173.645 100.966 176.275 96.5233 181.104C90.8445 187.275 89.0598 196.114 88.7355 204.515C88.6217 207.462 88.6575 210.419 88.6932 213.375C88.7594 218.844 88.8254 224.309 87.9439 229.693C86.6373 237.674 83.2233 245.297 78.1453 251.571C73.6625 257.11 67.2661 261.811 60.1662 261.588C58.8683 261.915 60.5841 263.702 61.9177 263.591C74.5582 262.537 84.326 251.238 88.3428 239.144C91.4417 229.814 91.939 219.921 92.4352 210.049C92.5822 207.124 92.7291 204.202 92.9435 201.296C93.2531 197.101 93.7371 192.811 95.6078 189.048C98.2661 183.7 103.446 180.025 108.897 177.634C123.044 171.426 139.24 172.656 154.498 175.011C156.767 175.361 159.041 175.734 161.317 176.107C174.35 178.245 187.487 180.399 200.484 178.445C195.059 184.613 191.309 192.255 189.742 200.337C188.636 206.036 188.59 211.93 188.544 217.801C188.479 226.222 188.413 234.597 185.221 242.284C180.645 253.307 170.317 260.93 159.47 265.806C129.694 279.19 94.8192 275.332 63.8972 264.901C92.2258 279.451 126.63 281.521 156.484 270.473C169.39 265.697 182.159 257.801 187.774 245.182C189.838 240.543 196.414 241.627 201.481 242.463L201.853 242.524C211.086 244.041 220.172 241.487 229.308 238.918C234.148 237.558 239.003 236.193 243.9 235.428C249.462 234.559 255.095 234.468 260.731 234.378C265.114 234.307 269.5 234.237 273.857 233.8C283.814 232.801 294.234 229.428 300.309 221.435C301.267 220.174 302.135 218.685 301.983 217.106C301.686 214.024 297.983 212.688 294.928 212.289C290.859 211.758 286.736 211.644 282.644 211.951C292.318 193.225 292.845 171.227 292.735 150.127C292.634 130.789 291.337 109.37 277.706 95.7228C288.336 115.723 289.884 139.287 289.316 161.956C288.961 176.144 287.791 190.629 282.17 203.648C276.549 216.668 265.746 228.138 251.961 231.207C248.503 231.978 244.598 232.124 241.715 230.054C239.178 228.232 237.972 225.073 237.273 222.018C236.068 216.744 235.981 211.323 235.893 205.895C235.823 201.549 235.752 197.199 235.108 192.915C233.66 183.282 227.78 172.995 218.179 171.657C214.376 171.128 210.595 172.09 206.838 173.046C205.879 173.29 204.921 173.534 203.965 173.752C187.76 177.453 170.888 173.902 154.649 170.355C163.728 149.157 163.036 123.961 152.809 103.299C153.21 105.539 153.634 107.798 154.06 110.069L154.061 110.071L154.061 110.072Z" fill="#F75470"/>
<path d="M145.343 98.3428C141.715 92.1594 138.824 85.5389 136.753 78.6684C136.619 78.2234 136.492 77.7242 136.703 77.3104C136.915 76.8966 137.627 76.7723 137.804 77.2016L145.733 96.3547C146.033 97.0797 146.117 98.2309 145.343 98.3428Z" fill="#F75470"/>
<path d="M275.372 261.78C275.732 261.881 276.202 261.634 276.175 261.26C272.97 255.257 269.447 249.425 265.626 243.798C265.378 243.434 265.073 243.035 264.636 242.994C264.092 242.944 263.654 243.519 263.64 244.068C263.625 244.617 263.905 245.125 264.179 245.599C267.287 250.977 270.747 256.149 274.53 261.07C274.758 261.367 275.013 261.68 275.372 261.78Z" fill="#F75470"/>
<path d="M55.1173 243.119C49.7254 241.132 44.593 238.434 39.8926 235.117C39.0548 234.526 38.1505 233.396 38.8216 232.619C43.9471 235.438 49.0498 238.298 54.129 241.2C54.8481 241.611 55.666 242.497 55.1173 243.119Z" fill="#F75470"/>
<path d="M35.1574 250.904C34.8239 250.896 34.4538 250.901 34.2088 251.129C33.8522 251.46 33.9869 252.097 34.3528 252.418C34.7187 252.739 35.226 252.827 35.7059 252.901C42.5688 253.958 49.4943 254.605 56.4335 254.836C57.5351 254.872 58.8809 254.758 59.3584 253.76C51.4 252.072 43.2883 251.115 35.1574 250.904Z" fill="#F75470"/>
<path d="M143.229 100.925C139.241 96.5673 135.561 91.9231 132.229 87.0398C132.047 86.7732 131.857 86.469 131.913 86.1505C131.996 85.6715 132.617 85.4582 133.073 85.6208C133.529 85.7834 133.847 86.1899 134.14 86.577L142.979 98.2589C143.593 99.0705 144.116 100.43 143.229 100.925Z" fill="#F75470"/>
<path fill-rule="evenodd" clip-rule="evenodd" d="M152.935 190.984C153.054 190.093 152.864 189.163 152.406 188.391C151.69 188.477 151.189 189.19 151.059 189.902C150.96 190.441 151.018 190.99 151.076 191.538C151.095 191.714 151.114 191.891 151.127 192.067C151.276 194.029 150.746 196.036 149.647 197.665C151.216 198.418 151.147 200.474 151.085 202.327C151.075 202.628 151.066 202.924 151.063 203.208C151.044 205.28 151.771 207.388 153.217 208.866C154.663 210.343 156.846 211.117 158.862 210.684C162.35 209.934 165.958 209.754 169.502 210.153L169.628 210.167C170.673 210.285 171.789 210.412 172.698 209.891C173.604 209.372 174.072 208.337 174.433 207.353C176.286 202.31 176.858 196.895 177.292 191.536C177.531 188.584 177.458 185.035 174.986 183.423C173.68 182.57 172.024 182.522 170.467 182.572C165.919 182.72 161.39 183.481 157.042 184.828C156.168 185.099 155.248 185.431 154.698 186.165C154.148 186.898 154.204 188.153 155.028 188.549C154.78 189.637 153.97 190.58 152.935 190.984ZM155.389 206.023C154.866 206.252 154.147 206.137 153.885 205.627L165.803 189.073C166.672 187.865 167.572 186.628 168.829 185.838C170.086 185.047 171.801 184.803 173.027 185.641C174.782 186.84 174.7 189.427 174.372 191.535C173.758 195.481 172.958 199.398 171.976 203.268C171.836 203.823 171.66 204.423 171.192 204.749C170.817 205.011 170.332 205.037 169.876 205.054L159.364 205.455C159.12 205.465 159.17 205.071 159.311 204.87L169.143 190.872C170.008 189.639 170.984 188.325 172.428 187.911L172.25 186.812C169.851 187.014 168.16 189.183 166.762 191.154C163.474 195.79 160.097 200.363 156.635 204.869C156.286 205.323 155.913 205.795 155.389 206.023ZM157.404 194.172L162.325 187.893C163.493 186.403 165.221 184.74 166.982 185.423C162.281 190.341 158.085 195.745 154.482 201.524C154.275 201.857 154.048 202.209 153.69 202.364C153.332 202.519 152.814 202.355 152.759 201.967C152.738 201.82 152.785 201.672 152.835 201.532C153.796 198.791 155.615 196.454 157.404 194.172ZM153.361 196.302C152.675 196.186 152.751 195.162 153.048 194.529C153.942 192.623 155.165 190.895 156.382 189.178C157.008 188.294 157.659 187.386 158.582 186.824C159.505 186.262 160.779 186.133 161.621 186.811C158.776 189.282 156.337 192.224 154.433 195.484C154.19 195.899 153.834 196.382 153.361 196.302Z" fill="#F75470"/>
<path d="M265.167 267.007C262.85 262.004 260.949 256.807 259.49 251.488C259.284 250.735 259.084 249.965 259.116 249.185C259.136 248.702 259.373 248.109 259.854 248.106C260.306 248.103 260.557 248.618 260.699 249.05L266.852 267.792C266.472 268.467 265.492 267.71 265.167 267.007Z" fill="#F75470"/>
<path d="M251.858 252.371C251.169 256.48 251.126 260.698 251.731 264.82C251.936 266.217 252.314 267.756 253.496 268.517L253.492 250.183C252.5 250.169 252.023 251.387 251.858 252.371Z" fill="#F75470"/>
<path d="M272.492 82.9204L274.053 69.4706C274.088 69.1741 274.141 68.8433 274.38 68.6655C274.997 68.2056 275.617 69.2574 275.667 70.0281C276.014 75.339 275.252 80.7203 273.445 85.7231C272.435 85.3769 272.369 83.9858 272.492 82.9204Z" fill="#F75470"/>
<path d="M102.022 191.953C101.647 191.993 101.226 192.06 101.008 192.369C100.721 192.777 100.991 193.387 101.425 193.63C101.86 193.874 102.388 193.854 102.885 193.827C115.258 193.154 127.602 191.911 139.862 190.102C140.064 190.073 140.282 190.035 140.423 189.886C140.932 189.349 139.85 188.751 139.114 188.797C126.729 189.575 114.361 190.627 102.022 191.953Z" fill="#F75470"/>
</svg>
