<svg width="335" height="336" viewBox="0 0 335 336" fill="none" xmlns="http://www.w3.org/2000/svg">
<path d="M69.6611 260.602C70.1864 260.457 70.7382 260.661 71.2447 260.862C74.5391 262.171 77.8336 263.479 81.1281 264.787C82.6821 265.405 84.5099 266.409 84.4729 268.079C84.4411 269.522 82.8643 270.535 81.4204 270.499C79.9765 270.464 78.6691 269.687 77.437 268.935C75.2779 267.615 73.1188 266.296 70.9597 264.976C70.1277 264.468 69.2516 263.912 68.8351 263.031C68.4186 262.15 68.7213 260.863 69.6611 260.602Z" fill="#F75470"/>
<path d="M108.498 121.359C108.823 121.631 109.18 121.993 109.097 122.408C108.958 123.101 107.934 122.999 107.284 122.721C100.327 119.747 93.0485 116.527 88.4824 110.5C88.6405 109.723 89.5136 109.263 90.306 109.297C91.0985 109.331 91.8222 109.734 92.5074 110.133C98.1428 113.414 103.499 117.174 108.498 121.359Z" fill="#F75470"/>
<path d="M105.328 216.138C104.745 216.377 104.087 216.202 103.473 216.066C100.777 215.469 97.9066 215.686 95.3319 216.682C93.6298 217.34 91.9936 218.343 90.1692 218.4C88.3448 218.456 86.2947 216.991 86.6412 215.201C86.9579 213.564 88.8896 212.888 90.5156 212.511C94.7784 211.524 99.284 210.544 103.463 211.839C104.444 212.143 105.446 212.62 105.968 213.503C106.49 214.386 106.277 215.748 105.328 216.138Z" fill="#F75470"/>
<path d="M162.914 244.348C162.942 244.95 162.646 245.517 162.333 246.033C159.544 250.632 154.93 253.77 150.457 256.763C149.757 257.232 149.015 257.715 148.174 257.777C147.333 257.839 146.386 257.306 146.307 256.468C146.241 255.768 146.767 255.167 147.256 254.662C150.459 251.359 153.662 248.055 156.865 244.752C157.767 243.823 158.743 242.85 160.008 242.567C161.272 242.285 162.854 243.055 162.914 244.348Z" fill="#F75470"/>
<path d="M73.4353 154.056C72.5967 153.801 73.174 152.527 73.8625 151.985C81.492 145.98 90.3974 141.6 99.8144 139.222C100.719 138.993 101.754 138.803 102.524 139.33C103.294 139.857 103.217 141.384 102.286 141.455C98.4239 141.751 94.8421 143.495 91.3689 145.209C85.391 148.158 79.4132 151.107 73.4353 154.056Z" fill="#F75470"/>
<path d="M60.8137 259.337C60.3633 260.32 58.9972 260.578 57.9965 260.166C56.9957 259.753 56.2803 258.87 55.6093 258.022C52.4845 254.07 49.3597 250.118 46.2349 246.167C45.5529 245.304 44.8995 243.959 45.7338 243.242C46.5703 242.524 47.8066 243.377 48.5568 244.185C52.2294 248.14 55.9021 252.096 59.5747 256.051C60.4225 256.964 61.3325 258.204 60.8137 259.337Z" fill="#F75470"/>
<path d="M107.459 262.884C108.397 262.603 109.428 262.295 110.325 262.688C111.812 263.338 111.895 265.61 110.84 266.842C109.784 268.075 108.076 268.496 106.471 268.741C103.476 269.196 100.422 269.27 97.4081 268.96C96.1939 268.835 94.8628 268.58 94.1128 267.618C93.3628 266.656 93.8152 264.835 95.0356 264.814C99.2392 264.742 103.432 264.091 107.459 262.884Z" fill="#F75470"/>
<path d="M253.618 207.22C254.772 203.301 256.534 199.561 258.82 196.174C259.849 194.65 261.131 193.099 262.927 192.701C263.551 193.855 262.929 195.261 262.312 196.419C259.72 201.285 257.127 206.151 254.535 211.018C253.154 210.573 253.208 208.61 253.618 207.22Z" fill="#F75470"/>
<path d="M78.7382 225.013C76.267 228.353 75.8331 233.082 77.6554 236.814C78.0431 237.608 78.5383 238.471 78.2922 239.319C77.9397 240.535 76.1805 240.829 75.1323 240.118C74.084 239.408 73.6291 238.101 73.3792 236.861C72.423 232.115 73.6008 226.981 76.5305 223.125C76.8861 222.657 77.3017 222.183 77.8685 222.026C78.8215 221.762 79.7937 222.524 80.2096 223.42C80.6256 224.317 80.6661 225.335 80.9021 226.295C80.0089 226.384 79.0886 225.839 78.7382 225.013Z" fill="#F75470"/>
<path d="M111.261 219.326C110.108 218.745 110.996 216.742 112.284 216.658C113.573 216.574 114.646 217.576 115.541 218.506C117.289 220.321 119.078 222.198 120.012 224.537C120.947 226.876 120.829 229.818 119.056 231.609C115.938 227.78 115.673 221.549 111.261 219.326Z" fill="#F75470"/>
<path d="M285.471 218.674C282.55 211.484 279.629 204.294 276.708 197.104C276.624 196.896 276.538 196.676 276.568 196.454C276.703 195.452 278.277 196.055 278.872 196.873C283.433 203.144 286.197 210.704 286.756 218.435C286.328 218.514 285.9 218.594 285.471 218.674Z" fill="#F75470"/>
<path d="M35.8648 197.352C33.9904 195.858 33.9188 193.085 34.0352 190.693C34.2562 186.149 34.633 181.402 37.0358 177.538C37.696 178.13 37.6935 179.145 37.6405 180.03C37.3807 184.364 37.1209 188.699 36.861 193.034C36.7716 194.525 36.6603 196.087 35.8648 197.352Z" fill="#F75470"/>
<path d="M121.907 262.324C124.586 261.126 127.265 259.929 129.944 258.731C131.242 258.15 132.837 257.591 133.999 258.411C134.991 259.111 135.162 260.598 134.657 261.701C134.152 262.805 133.133 263.584 132.083 264.195C129.998 265.406 127.633 266.133 125.228 266.302C123.994 266.389 122.634 266.286 121.725 265.449C120.815 264.611 120.778 262.829 121.907 262.324Z" fill="#F75470"/>
<path d="M36.667 210.788C38.1995 216.171 39.7319 221.553 41.2644 226.936C41.4886 227.723 41.6329 228.748 40.9495 229.201C40.3574 229.592 39.5525 229.239 39.0171 228.773C37.5381 227.485 36.9266 225.49 36.4448 223.59C35.5641 220.118 34.8889 216.593 34.4238 213.042C34.3191 212.242 34.2462 211.355 34.7228 210.704C35.1995 210.054 36.4463 210.013 36.667 210.788Z" fill="#F75470"/>
<path d="M79.8842 251.253C80.1412 249.77 82.5147 249.978 83.4705 251.141C84.4264 252.305 84.7602 253.944 85.9199 254.905C86.9446 255.754 88.3653 255.871 89.6578 256.19C90.9504 256.509 92.3529 257.268 92.5599 258.582C92.7808 259.984 91.3889 261.244 89.9717 261.355C88.5546 261.467 87.2067 260.744 86.0571 259.909C83.4964 258.049 81.4416 255.5 80.1676 252.605C79.9794 252.177 79.8045 251.714 79.8842 251.253Z" fill="#F75470"/>
<path d="M38.336 168.098C36.1741 166.684 36.8416 163.403 37.7601 160.991C38.9142 157.959 40.0683 154.927 41.2224 151.895C41.6833 150.684 42.3096 149.318 43.5628 148.984C44.215 149.336 44.0804 150.296 43.8529 151.001C42.014 156.7 40.175 162.399 38.336 168.098Z" fill="#F75470"/>
<path d="M292.221 66.5C293.094 67.8735 292.973 69.6323 292.784 71.2482C292.111 77.0069 290.958 82.7096 289.342 88.278C289.088 89.1528 288.587 90.206 287.675 90.1812C287.038 89.2841 287.224 88.0649 287.438 86.9857C288.637 80.9178 289.837 74.8499 291.037 68.7819C291.209 67.9136 291.453 66.9407 292.221 66.5Z" fill="#F75470"/>
<path d="M268.545 205.631C268.718 202.694 268.891 199.757 269.064 196.819C269.131 195.69 269.97 194.648 271.06 194.34C271.875 200.508 271.732 206.801 270.637 212.926C268.458 211.414 268.389 208.277 268.545 205.631Z" fill="#F75470"/>
<path d="M117.132 252.219C118.276 252.161 118.385 253.88 118.051 254.974C117.297 257.44 116.444 260.058 114.43 261.672C113.806 258.785 114.358 255.663 115.934 253.164C116.217 252.717 116.603 252.247 117.132 252.219Z" fill="#F75470"/>
<path d="M278.926 87.3346C277.62 82.7433 276.717 78.0376 276.231 73.2892C276.131 72.313 276.625 70.8665 277.532 71.2451C277.95 71.4197 278.103 71.9225 278.204 72.3637C279.596 78.3988 280.815 84.4739 281.857 90.5789C280.276 90.6897 279.36 88.8573 278.926 87.3346Z" fill="#F75470"/>
<path d="M85.2392 129.183C90.3792 127.694 95.7433 126.98 101.094 127.072C101.868 127.086 102.946 127.543 102.648 128.256C102.505 128.598 102.099 128.73 101.74 128.822C97.4671 129.923 93.1943 131.024 88.9215 132.125C87.7214 132.434 86.3745 132.726 85.3023 132.105C84.2301 131.484 84.0488 129.528 85.2392 129.183Z" fill="#F75470"/>
<path d="M265.483 81.117C265.156 80.5975 264.827 79.9285 265.153 79.4088C265.715 78.513 267.076 79.3534 267.709 80.2005C271.156 84.8121 274.276 89.6676 277.038 94.7186C275.477 95.4861 273.847 93.8617 272.87 92.4234C270.341 88.6983 267.878 84.9287 265.483 81.117Z" fill="#F75470"/>
<path d="M124.958 238.357C124.122 240.81 123.286 243.263 122.451 245.716C122.08 246.803 120.918 248.128 120.081 247.341C119.861 242.932 120.616 238.477 122.275 234.385C122.745 233.228 124.685 233.59 125.221 234.718C125.757 235.846 125.36 237.175 124.958 238.357Z" fill="#F75470"/>
<path d="M302 93.642C298.794 121.436 286.83 147.425 280.684 174.721C280.131 177.176 279.793 180.176 281.708 181.81C282.677 182.638 282.029 184.385 280.861 184.897C279.693 185.409 278.346 185.089 277.113 184.761C265.035 181.554 252.956 178.346 240.877 175.139C237.884 174.344 235.556 177.575 233.732 180.076C230.255 184.847 225.326 188.324 220.489 191.712C211.208 198.213 201.928 204.714 192.647 211.215C183.211 217.825 173.399 224.861 168.274 235.172C165.483 211.251 163.768 187.205 163.137 163.13C163.061 160.24 162.919 157.115 161.097 154.869C159.491 152.89 162.223 150.329 164.543 149.27C200.668 132.794 238.147 119.499 275.571 106.227C226.269 115.257 176.949 124.292 128.08 135.427C140.134 139.708 152.187 143.99 164.24 148.272C162.187 150.071 159.078 149.732 156.402 149.183C145.41 146.924 134.789 142.875 125.086 137.244C124.074 136.657 122.966 135.9 122.811 134.741C122.561 132.875 124.814 131.782 126.635 131.297C180.13 117.046 234.812 107.241 289.929 102.016C295.026 101.532 299.767 98.2439 302 93.642ZM208.669 161.87C229.439 166.698 250.209 171.526 270.979 176.354C272.807 176.778 274.635 177.203 276.463 177.628C281.769 151.864 288.698 126.433 297.193 101.536C268.335 122.577 238.807 142.702 208.669 161.87ZM199.751 170.439C192.231 185.998 184.712 201.558 177.192 217.117C195.84 201.747 215.266 187.317 235.37 173.903C225.335 171.293 215.3 168.684 205.265 166.074C202.794 165.431 200.861 168.142 199.751 170.439Z" fill="#F75470"/>
</svg>
