<svg width="335" height="336" viewBox="0 0 335 336" fill="none" xmlns="http://www.w3.org/2000/svg">
<path d="M240.971 93.8412C218.552 89.2593 195.378 88.3863 172.677 91.2683C170.398 91.5576 167.709 91.7412 166.195 90.0155C166.6 88.7672 168.076 88.2793 169.357 87.9868C191.583 82.9093 215.161 83.87 236.9 90.7389C238.605 91.2776 240.545 92.106 240.971 93.8412Z" fill="#F75470"/>
<path d="M266.071 262.128C262.128 255.281 259.773 247.657 257.45 240.105C257.278 239.547 257.105 238.961 257.211 238.387C257.317 237.812 257.802 237.262 258.386 237.295C261.161 244.852 263.888 252.427 266.568 260.019C266.845 260.803 266.894 262.004 266.071 262.128Z" fill="#F75470"/>
<path d="M67.9473 258.497C72.2527 251.718 77.8122 245.736 84.2608 240.946C84.6443 240.661 85.0667 240.368 85.5446 240.368C86.0224 240.369 86.5197 240.822 86.374 241.277C79.9817 247.735 73.7871 254.389 67.8018 261.225C66.959 260.661 67.4037 259.353 67.9473 258.497Z" fill="#F75470"/>
<path d="M252.66 82.453C251.967 81.8125 252.389 80.6693 252.858 79.8505C256.315 73.8178 260.178 68.0172 264.412 62.5008C265.295 62.4622 265.153 63.8705 264.673 64.6122C260.781 70.633 256.775 76.5814 252.66 82.453Z" fill="#F75470"/>
<path d="M76.3335 274.5C75.3286 274.271 75.5736 272.771 76.0607 271.863C80.5252 263.543 85.3079 255.393 90.3946 247.436C91.2918 246.033 92.701 244.436 94.2908 244.936C93.8306 245.651 93.3705 246.365 92.9118 247.081C87.1482 256.074 81.6196 265.218 76.3335 274.5Z" fill="#F75470"/>
<path d="M251.553 256.175C250.875 251.593 250.994 246.935 251.115 242.305C251.144 241.175 251.754 239.603 252.823 239.973C252.892 242.294 252.962 244.614 253.031 246.935C253.157 251.134 253.285 255.351 254.035 259.485C252.519 259.535 251.775 257.674 251.553 256.175Z" fill="#F75470"/>
<path d="M65.6998 90.4988C73.301 92.3738 80.7795 94.7456 88.0716 97.5938C88.3729 97.7115 88.6887 97.8407 88.8876 98.0957C89.0854 98.3492 89.1335 98.7112 89.0087 99.0075C81.0135 98.2613 73.1279 96.3543 65.6761 93.365C65.0697 93.1218 64.4365 92.849 64.0442 92.3269C63.6518 91.8048 63.619 90.955 64.1481 90.572C64.5818 90.2582 65.1799 90.3705 65.6998 90.4988Z" fill="#F75470"/>
<path d="M77.9368 75.3408C80.8578 78.6325 83.5692 82.1099 86.0491 85.7449C86.2162 85.9899 86.3881 86.2523 86.4021 86.5485C86.4182 86.8906 86.193 87.2305 85.8715 87.3493C81.7295 83.7028 78.1604 79.4079 75.3346 74.6695C75.9209 73.8108 77.2465 74.5629 77.9368 75.3408Z" fill="#F75470"/>
<path d="M248.883 70.6729C249.101 70.2312 249.349 69.7629 249.787 69.5376C250.225 69.3122 250.896 69.4935 250.975 69.9795C249.353 74.8633 247.311 79.6079 244.88 84.1443C243.878 84.0343 243.907 82.5642 244.246 81.6162C245.582 77.8842 247.131 74.2285 248.883 70.6729Z" fill="#F75470"/>
<path d="M58.9002 251.56C58.6189 251.788 58.1602 251.55 58.0455 251.207C57.9309 250.864 58.0526 250.49 58.1918 250.156C59.519 246.972 62.4013 244.726 65.3094 242.869C69.4198 240.243 73.8302 238.087 78.4272 236.455C79.0825 236.222 79.8218 236.003 80.4521 236.296C81.0824 236.59 81.3091 237.65 80.679 237.944C72.901 241.575 65.5692 246.158 58.9002 251.56Z" fill="#F75470"/>
<path d="M91.2302 84.3412C88.7173 79.927 87.1026 75.0048 86.513 69.9607C86.4183 69.1511 86.8703 67.9405 87.6003 68.3046C88.7016 72.0386 89.8029 75.7725 90.9043 79.5064C91.3703 81.0862 91.8323 82.808 91.2302 84.3412Z" fill="#F75470"/>
<path d="M271.187 82.0653C271.154 82.5341 270.698 82.8414 270.29 83.0756C265.514 85.8185 260.738 88.5613 255.962 91.3042C255.092 91.8041 254.162 92.3196 253.158 92.2879C252.707 92.0559 253.05 91.3718 253.427 91.0326C257.964 86.9542 263.223 83.6811 268.887 81.4115C269.778 81.0543 271.256 81.1082 271.187 82.0653Z" fill="#F75470"/>
<path d="M277.711 262.547C278.101 263.474 278.228 264.937 277.236 265.111C272.433 254.892 268.041 244.479 264.076 233.907C263.93 233.52 263.784 233.1 263.896 232.703C264.008 232.305 264.506 231.998 264.848 232.231C265.003 232.337 265.084 232.52 265.157 232.693C269.342 242.644 273.526 252.595 277.711 262.547Z" fill="#F75470"/>
<path d="M183.542 132.182C180.286 134.826 175.634 135.641 171.671 134.263C171.84 141.519 172.009 148.775 172.178 156.032C172.217 157.696 172.982 159.984 174.61 159.626C183.968 157.572 193.764 157.537 203.136 159.523C198.981 161.058 198.159 166.836 199.823 170.938C202.723 178.084 211.876 182.317 218.856 179.027C225.836 175.737 228.034 164.916 222.3 159.754C230.074 155.762 238.689 153.417 247.415 152.918C248.519 152.854 248.911 151.446 249 150.344C250.463 132.155 249.727 113.79 246.813 95.7754C247.855 95.1065 248.897 96.6424 249.182 97.8464C253.432 115.791 254.088 134.578 251.099 152.775C254.384 153.156 255.424 157.35 255.661 160.646C257.2 182.112 258.736 203.723 256.342 225.111C256.013 228.048 255.586 231.054 254.16 233.643C252.734 236.232 250.09 238.35 247.133 238.331C225.065 238.189 202.997 238.047 180.929 237.904C178.148 237.886 175.325 237.863 172.652 237.095C169.101 236.074 165.332 236.252 161.639 236.378C139.97 237.118 118.229 235.768 96.818 232.353C95.3505 232.119 94.1132 233.708 94.1274 235.193C94.1417 236.678 94.998 238.006 95.8237 239.241C95.5534 240.679 93.4091 239.23 93.0261 237.818C86.6041 214.133 85.0313 189.147 88.4328 164.845C88.7596 162.51 89.453 159.769 91.6705 158.963C88.8836 157.302 88.4489 153.513 88.3631 150.272C87.9189 133.49 88.6029 116.679 90.4088 99.9893C90.8363 96.0383 94.0567 92.8354 97.7134 91.272C101.37 89.7087 105.439 89.4832 109.411 89.2791C123.148 88.5733 136.884 87.8675 150.621 87.1616C156.818 86.8433 164.245 87.1286 167.517 92.3956C170.398 97.0323 168.517 103.467 171.295 108.166C175.827 103.307 185.071 104.459 188.269 110.283C190.035 113.5 190.005 117.411 189.344 121.021C188.572 125.233 186.868 129.481 183.542 132.182ZM168.382 161.929C160.847 162.842 153.181 162.666 145.696 161.409C144.19 161.156 142.23 159.892 143.079 158.624C145.191 155.472 146.671 151.797 146.694 148.004C146.718 144.211 145.136 140.311 142.086 138.053C136.909 134.222 128.852 136.436 125.127 141.687C121.402 146.938 121.456 154.163 123.764 160.172C114.448 160.003 105.132 159.833 95.8159 159.663C95.0096 159.649 94.1232 159.661 93.5126 160.187C92.9436 160.678 92.7765 161.477 92.65 162.217C89.073 183.131 91.3728 204.55 93.6803 225.642C93.7579 226.351 93.8513 227.101 94.2905 227.663C94.9485 228.507 96.144 228.657 97.2107 228.741C121.742 230.67 146.299 232.272 170.873 233.545C169.077 226.808 168.966 219.629 170.554 212.84C169.59 213.161 168.626 213.482 167.663 213.802C165.51 214.519 163.282 215.244 161.022 215.042C157.177 214.698 153.963 211.61 152.6 208.001C151.238 204.392 151.458 200.368 152.251 196.593C153.155 192.29 154.967 187.892 158.577 185.378C162.188 182.865 167.923 183.096 170.322 186.782C169.976 178.957 169.63 171.131 169.284 163.306C169.257 162.686 168.998 161.854 168.382 161.929Z" fill="#F75470"/>
</svg>
