<svg width="32" height="32" viewBox="0 0 32 32" fill="none" xmlns="http://www.w3.org/2000/svg">
<path d="M5 4.5C5 3.67157 5.67157 3 6.5 3H25.5C26.3284 3 27 3.67157 27 4.5V6.5C27 6.77614 26.7761 7 26.5 7H5.5C5.22386 7 5 6.77614 5 6.5V4.5Z" fill="#C2C2C2"/>
<path fill-rule="evenodd" clip-rule="evenodd" d="M26 7H6L7.48604 26.2311C7.60679 27.7937 8.90991 29 10.4771 29H21.5229C23.0901 29 24.3932 27.7937 24.514 26.2311L26 7ZM9.66416 10.5586C9.62939 9.98458 10.0855 9.5 10.6605 9.5C11.1883 9.5 11.6249 9.91093 11.6568 10.4378L12.3358 24.9414C12.3707 25.5154 11.9146 26 11.3395 26C10.8117 26 10.3751 25.5891 10.3432 25.0622L9.66416 10.5586ZM15 10.5C15 9.94772 15.4477 9.5 16 9.5C16.5523 9.5 17 9.94772 17 10.5V25C17 25.5523 16.5523 26 16 26C15.4477 26 15 25.5523 15 25V10.5ZM20.3432 10.4378C20.3751 9.91093 20.8117 9.5 21.3395 9.5C21.9146 9.5 22.3707 9.98458 22.3358 10.5586L21.6568 25.0622C21.6249 25.5891 21.1883 26 20.6605 26C20.0855 26 19.6294 25.5154 19.6642 24.9414L20.3432 10.4378Z" fill="#DEDEDE"/>
<path d="M9.66416 10.5586C9.62939 9.98458 10.0855 9.5 10.6605 9.5C11.1883 9.5 11.6249 9.91093 11.6568 10.4378L12.3358 24.9414C12.3707 25.5154 11.9146 26 11.3395 26C10.8117 26 10.3751 25.5891 10.3432 25.0622L9.66416 10.5586Z" fill="#C2C2C2"/>
<path d="M15 10.5C15 9.94772 15.4477 9.5 16 9.5C16.5523 9.5 17 9.94772 17 10.5V25C17 25.5523 16.5523 26 16 26C15.4477 26 15 25.5523 15 25V10.5Z" fill="#C2C2C2"/>
<path d="M21.3395 9.5C20.8117 9.5 20.3751 9.91093 20.3432 10.4378L19.6642 24.9414C19.6294 25.5154 20.0855 26 20.6605 26C21.1883 26 21.6249 25.5891 21.6568 25.0622L22.3358 10.5586C22.3707 9.98458 21.9146 9.5 21.3395 9.5Z" fill="#C2C2C2"/>
</svg>
