<svg width="32" height="32" viewBox="0 0 32 32" fill="none" xmlns="http://www.w3.org/2000/svg">
<path d="M13.7901 6.17371C14.7723 4.4753 17.2277 4.4753 18.2099 6.17371L28.1543 23.3701C29.1365 25.0686 27.9088 27.1916 25.9444 27.1916H6.05555C4.09122 27.1916 2.86351 25.0686 3.84568 23.3701L13.7901 6.17371Z" fill="#FFC74D"/>
<path fill-rule="evenodd" clip-rule="evenodd" d="M16 10.0041C15.1371 10.0041 14.4375 10.7036 14.4375 11.5666L14.5417 18.9624C14.5417 19.8253 15.1371 20.4207 16 20.4207C16.8629 20.4207 17.4583 19.8253 17.4583 18.9624L17.5625 11.5666C17.5625 10.7036 16.8629 10.0041 16 10.0041ZM16 24.4832C16.8054 24.4832 17.4583 23.8303 17.4583 23.0249C17.4583 22.2195 16.8054 21.5666 16 21.5666C15.1946 21.5666 14.5417 22.2195 14.5417 23.0249C14.5417 23.8303 15.1946 24.4832 16 24.4832Z" fill="#5F5C5D"/>
</svg>
