<svg width="32" height="32" viewBox="0 0 32 32" fill="none" xmlns="http://www.w3.org/2000/svg">
<path fill-rule="evenodd" clip-rule="evenodd" d="M24.4027 4.39864C24.6429 4.15847 24.5559 3.753 24.2264 3.67035C22.3618 3.20267 20.3053 3.69799 18.8471 5.15619C17.2528 6.75049 16.8096 9.05999 17.5174 11.0519L4.23209 23.6891C3.27276 24.6016 3.25372 26.1254 4.18997 27.0616L4.93846 27.8101C5.87471 28.7463 7.39839 28.7273 8.31089 27.7679L20.9481 14.4827C22.9401 15.1905 25.2495 14.7472 26.8438 13.1529C28.302 11.6947 28.7973 9.63819 28.3297 7.77358C28.2471 7.44417 27.8416 7.35717 27.6014 7.59734L24.5396 10.6591C24.4389 10.7598 24.2968 10.8071 24.1558 10.787L21.9167 10.4671C21.7177 10.4387 21.5614 10.2823 21.5329 10.0833L21.213 7.84423C21.1929 7.70328 21.2403 7.56107 21.3409 7.46038L24.4027 4.39864ZM6.23778 25.7622C6.69994 26.2244 7.44921 26.2244 7.91137 25.7622C8.37353 25.3001 8.37353 24.5508 7.91137 24.0886C7.44921 23.6265 6.69994 23.6265 6.23778 24.0886C5.77563 24.5508 5.77563 25.3001 6.23778 25.7622Z" fill="#DEDEDE"/>
<path d="M20.9463 14.4845C20.1765 14.2171 19.4537 13.776 18.8389 13.1611C18.224 12.5463 17.7829 11.8235 17.5155 11.0537L17.1282 11.418C17.4304 12.1755 17.8881 12.8854 18.5013 13.4987C19.1146 14.1119 19.8245 14.5696 20.582 14.8718L20.9463 14.4845Z" fill="#C2C2C2"/>
<path d="M19.0565 14.6282C18.8608 14.4325 18.5436 14.4325 18.348 14.6282L14.6282 18.348C14.4325 18.5436 14.4325 18.8608 14.6282 19.0565L14.9825 19.4107C15.1781 19.6064 15.4953 19.6064 15.691 19.4107L19.4107 15.691C19.6064 15.4953 19.6064 15.1781 19.4107 14.9825L19.0565 14.6282Z" fill="#00DC59"/>
<path d="M20.8278 16.3995C20.6321 16.2039 20.3149 16.2039 20.1193 16.3995L16.3995 20.1193C16.2039 20.3149 16.2039 20.6321 16.3995 20.8278L23.4848 27.913C24.2674 28.6957 25.5362 28.6957 26.3189 27.913L27.913 26.3189C28.6957 25.5362 28.6957 24.2674 27.913 23.4848L20.8278 16.3995Z" fill="#00DC59"/>
<path d="M19.6926 16.1177C19.5239 15.949 19.4715 15.7081 19.5355 15.4945C19.5115 15.5644 19.4717 15.63 19.4159 15.6858L15.6962 19.4056C15.6404 19.4613 15.5748 19.5012 15.5049 19.5251C15.7184 19.4612 15.9594 19.5135 16.1281 19.6822C16.2967 19.8509 16.3491 20.0918 16.2851 20.3053C16.3091 20.2355 16.3489 20.1698 16.4047 20.1141L20.1245 16.3943C20.1802 16.3386 20.2458 16.2987 20.3157 16.2747C20.1022 16.3387 19.8612 16.2864 19.6926 16.1177Z" fill="#00C74B"/>
<path d="M7.74734 6.15316L6.15316 7.74734L15.4253 17.5509L17.5509 15.4253L7.74734 6.15316Z" fill="#F0F0F0"/>
<path d="M7.05925 4.93368L4.93367 7.05925L6.15316 7.74734L7.74734 6.15316L7.05925 4.93368Z" fill="#DEDEDE"/>
<path d="M5.27739 3.58751C5.05519 3.41964 4.67809 3.49971 4.40508 3.77271L3.77271 4.40508C3.49971 4.67809 3.41964 5.05519 3.58751 5.27739L4.93367 7.05925L7.05925 4.93368L5.27739 3.58751Z" fill="#F0F0F0"/>
</svg>
