<svg width="32" height="32" viewBox="0 0 32 32" fill="none" xmlns="http://www.w3.org/2000/svg">
<path d="M24.8889 14.8889C24.5942 14.8889 24.3116 15.0059 24.1032 15.2143C23.8948 15.4227 23.7778 15.7053 23.7778 16V22.6667C23.7778 22.9614 23.6607 23.244 23.4523 23.4523C23.244 23.6607 22.9614 23.7778 22.6667 23.7778H9.33333C9.03865 23.7778 8.75603 23.6607 8.54766 23.4523C8.33929 23.244 8.22222 22.9614 8.22222 22.6667V9.33333C8.22222 9.03865 8.33929 8.75603 8.54766 8.54766C8.75603 8.33929 9.03865 8.22222 9.33333 8.22222H16C16.2947 8.22222 16.5773 8.10516 16.7857 7.89679C16.994 7.68841 17.1111 7.4058 17.1111 7.11111C17.1111 6.81643 16.994 6.53381 16.7857 6.32544C16.5773 6.11706 16.2947 6 16 6H9.33333C8.44928 6 7.60143 6.35119 6.97631 6.97631C6.35119 7.60143 6 8.44928 6 9.33333V22.6667C6 23.5507 6.35119 24.3986 6.97631 25.0237C7.60143 25.6488 8.44928 26 9.33333 26H22.6667C23.5507 26 24.3986 25.6488 25.0237 25.0237C25.6488 24.3986 26 23.5507 26 22.6667V16C26 15.7053 25.8829 15.4227 25.6746 15.2143C25.4662 15.0059 25.1836 14.8889 24.8889 14.8889Z" fill="#5F5C5D"/>
<path d="M16.7609 18.4057L23.4277 11.7389L20.2611 8.5723L13.5943 15.2391C13.5025 15.331 13.4373 15.446 13.4056 15.572L12.6667 19.3333L16.4273 18.5944C16.5536 18.5628 16.6691 18.4976 16.7609 18.4057ZM25.5799 9.5867C25.8489 9.31764 26 8.95276 26 8.5723C26 8.19184 25.8489 7.82696 25.5799 7.55789L24.4421 6.42009C24.173 6.15111 23.8082 6 23.4277 6C23.0472 6 22.6824 6.15111 22.4133 6.42009L21.2755 7.55789L24.4421 10.7245L25.5799 9.5867Z" fill="#5F5C5D"/>
</svg>
