<svg width="32" height="32" viewBox="0 0 32 32" fill="none" xmlns="http://www.w3.org/2000/svg">
<path d="M16.7856 13.4543V18.8762H24.474C24.1364 20.6198 23.1233 22.0962 21.6038 23.0889L26.2402 26.6144C28.9416 24.1708 30.5 20.5817 30.5 16.3181C30.5 15.3254 30.4091 14.3708 30.2403 13.4545L16.7856 13.4543Z" fill="#4285F4"/>
<path d="M8.77932 18.6648L7.73363 19.4492L4.03223 22.2746C6.3829 26.8437 11.2008 30.0001 16.7852 30.0001C20.6423 30.0001 23.8761 28.7528 26.2398 26.6147L21.6034 23.0892C20.3307 23.9292 18.7073 24.4383 16.7852 24.4383C13.0709 24.4383 9.91513 21.982 8.78516 18.6729L8.77932 18.6648Z" fill="#34A853"/>
<path d="M4.03238 9.72534C3.05839 11.6089 2.5 13.7344 2.5 15.9998C2.5 18.2652 3.05839 20.3907 4.03238 22.2742C4.03238 22.2869 8.78577 18.6597 8.78577 18.6597C8.50005 17.8197 8.33117 16.9289 8.33117 15.9996C8.33117 15.0704 8.50005 14.1796 8.78577 13.3396L4.03238 9.72534Z" fill="#FBBC05"/>
<path d="M16.7855 7.57453C18.8895 7.57453 20.7596 8.28724 22.2531 9.6618L26.344 5.65277C23.8635 3.38736 20.6428 2 16.7855 2C11.2011 2 6.3829 5.14363 4.03223 9.72545L8.78547 13.34C9.91529 10.0309 13.0712 7.57453 16.7855 7.57453Z" fill="#EA4335"/>
</svg>
