<svg width="32" height="32" viewBox="0 0 32 32" fill="none" xmlns="http://www.w3.org/2000/svg">
<path d="M11.8736 26C10.712 26 9.57644 25.6555 8.61057 25.0103C7.6447 24.365 6.89187 23.4478 6.44726 22.3748C6.00266 21.3017 5.88624 20.1209 6.11274 18.9817C6.33923 17.8425 6.89847 16.796 7.71973 15.9746L10.2113 13.482L11.8724 15.1429L9.38081 17.6343C8.71984 18.2952 8.34851 19.1916 8.34851 20.1263C8.34851 21.0609 8.71984 21.9573 9.38081 22.6182C10.0418 23.2791 10.9383 23.6504 11.873 23.6504C12.8078 23.6504 13.7042 23.2791 14.3652 22.6182L16.8556 20.1269L18.5179 21.7889L16.0263 24.2803C15.482 24.8273 14.8346 25.2609 14.1216 25.5561C13.4086 25.8512 12.6441 26.0021 11.8724 26L11.8736 26ZM12.7041 20.9573L11.0431 19.2964L19.3484 10.9906L21.0107 12.6515L12.7053 20.9561L12.7041 20.9573ZM21.8424 18.4659L20.1801 16.805L22.6706 14.3136C23.0072 13.9887 23.2758 13.5999 23.4606 13.17C23.6454 12.7401 23.7428 12.2777 23.7469 11.8098C23.7511 11.3419 23.662 10.8779 23.4849 10.4448C23.3078 10.0117 23.0463 9.61816 22.7154 9.28722C22.3846 8.95627 21.9912 8.69452 21.5581 8.51724C21.1251 8.33995 20.661 8.25068 20.1931 8.25464C19.7251 8.25859 19.2627 8.35569 18.8327 8.54027C18.4026 8.72486 18.0137 8.99322 17.6885 9.32971L15.1957 11.8211L13.5347 10.1602L16.0263 7.66761C17.1325 6.58931 18.6191 5.99022 20.164 6.00012C21.7088 6.01002 23.1876 6.62811 24.2799 7.72049C25.3723 8.81288 25.9902 10.2916 25.9999 11.8363C26.0096 13.3811 25.4102 14.8674 24.3316 15.9734L21.8412 18.4648L21.8412 18.4659L21.8424 18.4659Z" fill="#5F5C5D"/>
</svg>
