<svg width="32" height="32" viewBox="0 0 32 32" fill="none" xmlns="http://www.w3.org/2000/svg">
<path d="M15.917 8.69574C15.8602 8.55909 15.7771 8.43496 15.6724 8.33047C15.5679 8.22571 15.4438 8.1426 15.3071 8.0859C15.1704 8.02919 15.0239 8 14.876 8C14.728 8 14.5815 8.02919 14.4449 8.0859C14.3082 8.1426 14.1841 8.22571 14.0796 8.33047L7.33047 15.0796C7.22571 15.1841 7.1426 15.3082 7.0859 15.4449C7.02919 15.5815 7 15.728 7 15.876C7 16.0239 7.02919 16.1704 7.0859 16.3071C7.1426 16.4438 7.22571 16.5679 7.33047 16.6724L14.0796 23.4215C14.1842 23.5261 14.3083 23.609 14.445 23.6656C14.5816 23.7222 14.7281 23.7514 14.876 23.7514C15.0239 23.7514 15.1703 23.7222 15.307 23.6656C15.4436 23.609 15.5678 23.5261 15.6724 23.4215C15.777 23.3169 15.8599 23.1928 15.9165 23.0561C15.9731 22.9195 16.0023 22.773 16.0023 22.6251C16.0023 22.4772 15.9731 22.3307 15.9165 22.1941C15.8599 22.0574 15.777 21.9333 15.6724 21.8287L10.8418 17H23.8751C24.1735 17 24.4596 16.8816 24.6705 16.6708C24.8815 16.46 25 16.1742 25 15.8761C25 15.578 24.8815 15.2921 24.6705 15.0814C24.4596 14.8706 24.1735 14.7522 23.8751 14.7522H10.8416L15.6724 9.92326C15.7771 9.81877 15.8602 9.69464 15.917 9.55798C15.9737 9.42132 16.0028 9.27482 16.0028 9.12686C16.0028 8.97891 15.9737 8.8324 15.917 8.69574Z" fill="#5F5C5D"/>
</svg>
