<svg width="300" height="104" viewBox="0 0 300 104" fill="none" xmlns="http://www.w3.org/2000/svg">
<path d="M271.376 71.6275C273.002 71.3288 274.443 70.2287 275.103 68.5817C275.459 67.6941 275.769 66.8026 276.038 65.9101C274.761 67.9635 273.173 69.8672 271.376 71.6275Z" fill="#F75470"/>
<path d="M278.076 47.7075C278.022 44.8131 277.4 40.0707 275.976 36.5205C275.551 35.462 274.968 34.2836 274.15 33.2363C273.347 32.2097 272.034 30.952 270.084 30.4258C268.359 29.9606 266.827 30.1797 265.502 30.7557C271.14 35.1255 275.646 40.6645 278.076 47.7075Z" fill="#F75470"/>
<path d="M120.083 18.7769C123.345 18.4353 126.616 18.1371 129.892 17.88C129.904 17.9281 129.915 17.9766 129.926 18.0254C131.604 25.7466 131.447 34.7024 131.302 43.0119C131.292 43.6042 131.281 44.1933 131.272 44.7783C131.122 53.9331 131.138 62.2539 133.034 69.1043C133.768 71.7565 132.213 74.5007 129.561 75.2336C126.909 75.9665 124.164 74.4107 123.43 71.7585C121.087 63.2922 121.163 53.5144 121.308 44.6117C121.316 44.1653 121.323 43.7211 121.331 43.2791L121.331 43.2459C121.478 34.528 121.61 26.6792 120.188 20.1383C120.089 19.6801 120.056 19.2229 120.083 18.7769Z" fill="#F75470"/>
<path d="M35.1308 34.4296C34.5061 34.5017 33.8824 34.6202 33.2637 34.7882C33.1936 34.4881 33.0693 34.0567 32.8602 33.6202C32.7503 33.391 32.5108 32.9293 32.0804 32.4433C31.6755 31.986 30.7173 31.078 29.1413 30.8188C27.3839 30.5298 25.9876 31.2185 25.1911 31.8603C24.4882 32.4267 24.1124 33.0444 23.9576 33.32C23.6354 33.8935 23.4968 34.4085 23.4555 34.5629C23.3932 34.7954 23.353 35.0027 23.3275 35.1476C23.2759 35.4409 23.2388 35.7457 23.2102 36.0181C23.1516 36.5768 23.0978 37.3056 23.0453 38.1844C22.9808 39.2667 23.2667 40.289 23.8051 41.1407C23.812 41.2774 23.8189 41.4165 23.8258 41.558C27.0053 38.7849 30.9641 36.4308 35.1308 34.4296Z" fill="#F75470"/>
<path fill-rule="evenodd" clip-rule="evenodd" d="M22.092 51.3197C22.6261 50.03 23.4103 48.7959 24.4101 47.6024C27.4036 44.0288 32.2852 40.9125 38.0156 38.2485C39.7339 37.4496 41.5039 36.702 43.2911 36.0026C46.8037 37.7826 49.7195 40.8034 51.4526 44.1738C53.4677 48.0928 54.4677 51.9308 54.2467 55.5968C54.021 59.34 52.5405 62.5406 50.2275 65.082C46.6149 69.0512 41.1952 71.2192 35.6081 72.1872C35.6841 72.9451 35.7629 73.6744 35.8447 74.3698C34.2123 73.3824 32.628 72.3286 31.1335 71.1827C26.9874 68.0037 23.6678 64.2142 21.983 59.3403C21.9067 59.1197 21.8369 58.9008 21.7732 58.6836C21.7785 58.4432 21.7836 58.1944 21.7888 57.9383C21.8288 55.9668 21.8776 53.5687 22.092 51.3197ZM42.8568 58.3735C41.3704 60.0066 38.6217 61.4104 34.8304 62.1949C34.5461 57.6304 34.3173 52.8614 34.1223 48.5645C34.0881 47.8121 34.055 47.0736 34.0226 46.3542L33.997 45.7825C34.0713 45.689 34.1475 45.5999 34.2254 45.5151C35.4119 44.2237 36.5949 44.0624 38.0282 44.5642C39.7596 45.1704 41.5862 46.7737 42.591 48.7277C44.0309 51.5281 44.3854 53.5769 44.3 54.9936C44.2192 56.3332 43.7325 57.4114 42.8568 58.3735Z" fill="#F75470"/>
<path d="M21.9568 68.7894C22.2975 72.1985 22.9197 75.5161 23.7456 78.7699C28.1137 80.7632 32.8002 82.3445 37.3778 83.649C37.1783 82.4429 36.9626 81.2494 36.7874 80.3059C33.8987 78.7318 30.9795 76.9654 28.295 74.907C25.9824 73.1338 23.8099 71.1192 21.9568 68.7894Z" fill="#F75470"/>
<path d="M25.4413 84.5823C25.9022 85.9906 26.3935 87.3898 26.9088 88.7821C27.3054 89.8537 27.6964 90.8149 28.0868 91.5431C28.2319 91.8138 28.6236 92.5377 29.2917 93.1826C29.5968 93.477 30.4765 94.2723 31.8962 94.5495C33.7639 94.9143 35.4655 94.1939 36.5365 93.067C37.3595 92.2009 37.6574 91.2758 37.7592 90.9277C37.8882 90.4862 37.94 90.102 37.9648 89.8634C38.0106 89.4204 38.0089 89.0003 37.9989 88.6862C33.8823 87.5672 29.5868 86.2294 25.4413 84.5823Z" fill="#F75470"/>
<path fill-rule="evenodd" clip-rule="evenodd" d="M266.515 69.7438C265.489 68.3947 265.178 66.5565 265.854 64.8698C267.643 60.409 267.821 55.8063 268.048 49.9467C268.068 49.4287 268.089 48.9007 268.11 48.3623C268.136 47.7285 268.067 46.327 267.814 44.6375C267.735 44.112 267.643 43.5944 267.541 43.0968C266.728 44.7887 266.01 46.8254 265.412 49.0836C264.567 52.2756 264.037 55.6189 263.768 58.4815C263.645 60.4319 263.496 62.3374 263.406 63.3629C263.377 63.7032 263.342 64.0812 263.314 64.2995C263.31 64.3315 263.297 64.4307 263.276 64.5516C263.268 64.5966 263.239 64.7559 263.187 64.9546C263.165 65.0389 263.101 65.2764 262.983 65.567C262.918 65.7203 262.731 66.0963 262.603 66.3151C262.368 66.6604 261.57 67.5073 260.963 67.9437C259.799 68.4626 257.12 68.5135 255.802 67.9602C255.049 67.4056 254.12 66.2932 253.872 65.8381C253.549 65.163 253.46 64.5634 253.445 64.4642L253.443 64.4544C253.394 64.1372 253.387 63.879 253.386 63.8295L253.386 63.8245C253.381 63.6733 253.385 63.5494 253.386 63.5167L253.386 63.5145C253.39 63.3628 253.402 63.1795 253.41 63.0485C253.451 62.4215 253.563 60.9531 253.779 58.3201C253.796 58.1178 253.814 57.913 253.833 57.706C253.888 56.8193 253.936 55.9346 253.968 55.1447C253.995 54.4916 254.02 52.2555 253.912 49.7057L253.854 49.8204C252.028 53.4412 250.655 57.1378 250.255 58.7731C250.082 59.4836 249.896 61.1434 249.749 62.9282L249.541 66.4015C249.53 66.5885 249.52 66.7444 249.511 66.866C249.507 66.9251 249.502 66.9921 249.496 67.0578C249.493 67.09 249.489 67.1376 249.483 67.1924L249.483 67.1951C249.479 67.228 249.464 67.3631 249.436 67.5277L249.435 67.533C249.426 67.5848 249.375 67.8805 249.259 68.2335L249.256 68.2425C249.224 68.3417 248.997 69.0581 248.425 69.7773C247.997 70.2489 246.587 71.2101 245.565 71.5465C244.198 71.6448 241.909 70.912 241.078 70.2684C240.659 69.8135 240.119 68.9955 239.961 68.6682C239.874 68.455 239.749 68.0889 239.707 67.9382C239.63 67.6458 239.598 67.4108 239.586 67.3198C239.558 67.1134 239.55 66.9501 239.548 66.9012C239.539 66.7125 239.543 66.5439 239.543 66.5203L239.543 66.5179C239.545 66.4059 239.55 66.2747 239.555 66.1547C239.576 65.6506 239.627 64.7099 239.704 63.6057C239.733 63.18 239.769 62.6981 239.81 62.185L240.124 56.9328C240.14 56.6573 240.162 56.2288 240.189 55.6856L240.19 55.6808C240.298 53.5437 240.496 49.6372 240.815 46.2833C241.009 44.2477 241.279 42.0248 241.693 40.4456C241.803 40.0287 241.957 39.5167 242.182 39.0024C242.348 38.6201 242.808 37.6156 243.798 36.7824C244.361 36.3086 245.249 35.7631 246.449 35.5942C247.699 35.4182 248.817 35.7179 249.668 36.1805C250.014 36.3683 250.315 36.5821 250.577 36.804C251.366 35.9933 252.258 35.2464 253.249 34.6927C254.113 34.2098 255.27 33.8234 256.622 33.9169C257.989 34.0115 259.102 34.5665 259.908 35.2096C260.062 35.3324 260.207 35.46 260.344 35.5912C260.513 35.3342 260.685 35.0817 260.862 34.8341C261.108 34.4906 261.387 34.1239 261.701 33.7528C267.283 37.8452 271.559 42.9894 273.735 49.4642C275.369 54.327 274.739 58.5768 272.677 62.3879C271.256 65.0168 269.13 67.4726 266.515 69.7438ZM239.57 66.1767C239.567 66.2102 239.565 66.2305 239.565 66.2322C239.565 66.2322 239.566 66.2285 239.567 66.2174L239.57 66.1767Z" fill="#F75470"/>
<path fill-rule="evenodd" clip-rule="evenodd" d="M164.282 42.945C164.235 42.7929 164.189 42.6447 164.144 42.5003C163.937 40.829 163.627 39.42 163.362 38.4588C163.203 37.8792 162.934 36.9832 162.534 36.2512L162.527 36.2383C162.449 36.0941 162.096 35.4439 161.433 34.8461C161.13 34.5732 160.119 33.7095 158.502 33.5693C156.417 33.3885 154.869 34.4868 154.067 35.5545C152.854 35.9161 151.752 36.4851 150.818 37.068C149.502 37.8891 148.217 38.928 147.013 40.0592C144.605 42.3208 142.229 45.2244 140.25 48.2796C138.286 51.3134 136.562 54.73 135.65 58.0487C134.796 61.1576 134.346 65.334 136.604 68.8325C137.781 70.656 139.346 72.2724 141.43 73.1823C143.608 74.1332 145.811 74.0758 147.733 73.4683C151.171 72.3814 153.883 69.4955 155.734 67.1077C157.365 65.0056 158.854 62.5823 160.09 60.2884C162.701 65.0624 166.593 69.2127 172.975 71.4501C175.572 72.3606 178.415 70.9937 179.324 68.3971C180.234 65.8004 178.866 62.9574 176.269 62.0469C172.658 60.7812 170.502 58.5743 168.815 55.4776C167.256 52.6136 166.234 49.287 164.995 45.2516L164.994 45.2484L164.993 45.2456C164.765 44.5032 164.529 43.7368 164.282 42.945ZM153.836 47.3236C154.029 47.1421 154.218 46.9715 154.4 46.8118C154.362 47.8428 154.226 48.8729 153.944 49.8079C153.508 51.2522 150.963 56.9976 147.859 60.9995C146.657 62.55 145.731 63.3581 145.179 63.7254C145.12 63.6459 145.054 63.5513 144.982 63.4395C144.985 63.4449 144.988 63.4473 144.988 63.4473C144.988 63.4473 144.987 63.4409 144.984 63.4288C144.95 63.306 144.747 62.5559 145.259 60.6925C145.817 58.6629 147.001 56.1908 148.615 53.6976C150.216 51.2257 152.09 48.9638 153.836 47.3236Z" fill="#F75470"/>
<path fill-rule="evenodd" clip-rule="evenodd" d="M64.0716 36.6686C65.5678 34.3598 68.6529 33.7019 70.9622 35.1989C74.3406 37.3891 77.9984 39.9422 80.5778 43.4718C83.3414 47.2535 84.6399 51.8066 84.0576 57.4827C83.613 61.8158 80.9119 65.6751 77.8222 68.1695C74.7448 70.6539 70.1903 72.6368 65.4291 71.4554C60.4737 70.2258 57.7323 66.4211 56.5 62.5929C55.2984 58.8601 55.3114 54.6268 55.975 50.8936C56.6357 47.1769 58.0517 43.3385 60.2544 40.4907C61.1247 39.3657 62.2884 38.2191 63.6956 37.3621C63.8009 37.125 63.926 36.8931 64.0716 36.6686ZM69.2735 46.1579C69.0567 46.1326 68.8395 46.0928 68.6233 46.0378C68.5095 46.1435 68.3486 46.3159 68.1373 46.5891C67.2029 47.7971 66.2592 49.9793 65.786 52.641C65.3158 55.2862 65.4208 57.789 65.9853 59.5428C66.5192 61.2012 67.2181 61.6335 67.8256 61.7842C68.4823 61.9472 69.8922 61.7626 71.561 60.4154C73.2175 59.0781 74.0444 57.4416 74.1448 56.4623C74.494 53.0587 73.7404 51.0012 72.5331 49.3492C71.7387 48.2622 70.6704 47.2405 69.2735 46.1579ZM68.8361 45.8888C68.8353 45.8974 68.7989 45.9253 68.7298 45.9467C68.8024 45.8909 68.837 45.8802 68.8361 45.8888Z" fill="#F75470"/>
<path fill-rule="evenodd" clip-rule="evenodd" d="M110.488 72.1719C115.211 69.278 117.124 64.1503 117.622 59.5437C118.129 54.8563 117.315 49.7792 115.629 45.4904C114.011 41.3736 111.181 36.9852 106.857 34.9906C104.547 33.9249 101.915 33.6094 99.2115 34.3656C96.5945 35.0978 94.2823 36.727 92.2659 38.9053C91.5142 39.7174 91.0846 40.7128 90.9711 41.7344C89.598 43.6502 88.5993 45.7793 87.9245 47.9244C86.4906 52.482 86.3623 57.5384 87.4019 61.9888C88.417 66.3342 90.7598 70.901 95.049 73.3609C99.701 76.0289 105.181 75.424 110.488 72.1719ZM101.706 45.1973C102.205 44.9381 102.642 44.6061 103.011 44.2211C103.934 44.8232 105.264 46.3573 106.355 49.1327C107.515 52.0829 108.031 55.5441 107.715 58.469C107.39 61.4748 106.326 63.0336 105.279 63.6752C102.123 65.6092 100.63 65.0766 100.004 64.7176C99.0153 64.1505 97.7748 62.5911 97.1054 59.7255C96.4606 56.9651 96.5466 53.7259 97.43 50.9179C98.3118 48.115 99.8315 46.17 101.706 45.1973Z" fill="#F75470"/>
<path fill-rule="evenodd" clip-rule="evenodd" d="M199.901 51.6565C202.915 46.0149 200.885 39.3214 197.175 35.5317C195.194 33.5082 192.396 31.9258 189.044 31.8278C185.627 31.7279 182.399 33.1904 179.663 35.8203L179.301 36.1681L179.016 36.5811C171.912 46.8697 174.465 58.5204 181.16 65.489C184.503 68.9678 189.005 71.434 194.043 71.953C198.884 72.4518 203.897 71.1145 208.413 67.6804C209.24 68.498 210.148 69.2636 211.14 69.9675C215.636 73.159 220.329 75.5792 225.414 74.6738C230.36 73.7933 234.067 70.0189 237.415 65.798C239.125 63.6427 238.763 60.5088 236.607 58.7982C234.451 57.0877 231.318 57.4483 229.608 59.6037C226.3 63.7733 224.62 64.6934 223.664 64.8636C222.847 65.0089 221.123 64.8361 216.906 61.8427C215.539 60.872 214.43 59.6313 213.597 58.2141C215.087 58.0245 216.53 57.6487 217.823 57.2038C220.605 56.2464 223.422 54.7189 225.661 52.835C227.704 51.1164 230.201 48.3047 230.421 44.6205C230.65 40.7822 229.431 37.3528 226.715 35.0115C224.162 32.811 220.936 32.1355 218.124 32.2169C212.799 32.371 206.229 35.4091 203.752 41.3875C202.779 43.7359 202.16 46.255 201.92 48.8186C201.886 49.0478 201.867 49.2818 201.865 49.5194C201.65 52.7701 202.047 56.0736 203.109 59.1745C203.022 59.2371 202.937 59.3029 202.854 59.3719C200.08 61.6633 197.386 62.2806 195.06 62.041C192.647 61.7924 190.257 60.5769 188.345 58.5864C188.274 58.5125 188.203 58.4376 188.134 58.362C190.142 58.1842 192.139 57.6626 193.916 56.867C196.088 55.8948 198.52 54.2409 199.901 51.6565ZM184.924 48.1488C184.913 48.0936 184.898 47.9971 184.897 47.8496C185.174 46.1393 185.825 44.3941 186.924 42.6843C187.948 41.8115 188.573 41.7827 188.756 41.7881C189.024 41.7959 189.49 41.9239 190.056 42.5014C190.634 43.0923 191.107 43.9646 191.297 44.8942C191.485 45.8127 191.35 46.5128 191.112 46.9582C191.122 46.9383 191.121 46.9397 191.103 46.9586C191.033 47.0337 190.704 47.3858 189.841 47.7721C188.853 48.2147 187.646 48.4733 186.562 48.4651C185.568 48.4576 185.075 48.2376 184.924 48.1488ZM212.019 48.3627C212.642 48.3113 213.506 48.15 214.577 47.7814C216.332 47.1778 218.043 46.22 219.245 45.2088C220.126 44.4675 220.396 43.9975 220.468 43.8724L220.475 43.8606L220.481 43.8497C220.499 43.256 220.41 42.9283 220.355 42.7845C220.302 42.6448 220.252 42.594 220.211 42.5583C220.091 42.4553 219.575 42.1437 218.416 42.1772C217.296 42.2097 216.011 42.57 214.917 43.2122C213.815 43.8585 213.206 44.6056 212.958 45.2041C212.529 46.2392 212.217 47.2991 212.019 48.3627Z" fill="#F75470"/>
<path fill-rule="evenodd" clip-rule="evenodd" d="M281.634 30.0688C253.524 12.6759 217.559 6.51988 185.021 5.23558C143.771 3.60741 102.105 5.15622 62.1437 16.144C53.4596 18.5317 38.3215 22.8522 25.6801 29.7747C12.846 36.8027 3.68866 45.8823 4.76182 57.4665C5.68043 67.3825 13.3665 74.0064 23.6209 78.7116C32.3722 82.7271 42.4226 85.0784 50.3185 86.8591C47.7729 85.7799 45.2518 84.6245 42.7603 83.3828C38.1338 81.0772 32.8748 78.4165 28.298 74.9072C23.6972 71.3796 19.6512 66.8964 17.5701 60.8762C15.3836 54.5511 17.0833 49.0653 20.8348 44.5869C24.4847 40.2297 30.102 36.7621 36.0532 33.9954C45.8911 29.4219 57.3945 26.4435 64.2263 24.6747C65.6653 24.3021 66.8971 23.9832 67.8624 23.7143C113.222 11.0801 163.13 10.0153 209.453 13.9193C220.137 14.8198 234.958 16.6873 248.222 21.5553C261.437 26.4054 273.618 34.4291 278.167 47.9672C280.242 54.1438 279.429 59.7423 276.789 64.6234C274.194 69.4212 269.888 73.4423 265.069 76.7597C263.328 77.9581 261.5 79.0788 259.629 80.1231C268.58 76.4894 277.354 72.3882 284.52 66.2493C287.346 63.8292 290.493 60.5821 292.665 56.9882C294.845 53.3799 295.881 49.7011 295.024 46.2288C293.326 39.3543 287.713 33.8301 281.634 30.0688ZM181.788 94.7125C199.656 93.1072 217.374 90.1917 234.577 85.229C241.674 83.1817 253.421 79.0928 262.424 72.8947C266.923 69.7975 270.574 66.2826 272.68 62.3881C274.742 58.577 275.372 54.3272 273.738 49.4644C269.864 37.9336 259.327 30.6229 246.616 25.9577C233.953 21.3105 219.638 19.4821 209.061 18.5908C163.033 14.7116 113.736 15.8022 69.1129 28.2313C68.0539 28.5263 66.7418 28.8667 65.2355 29.2574C58.3532 31.0428 47.4151 33.8803 38.0186 38.2487C32.2882 40.9127 27.4066 44.029 24.4131 47.6026C21.5211 51.055 20.4327 54.847 21.986 59.3405C23.6709 64.2144 26.9905 68.0039 31.1365 71.1829C35.3066 74.3803 40.1756 76.8602 44.8399 79.1845C58.0367 85.761 72.1918 89.8783 86.6318 93.1212C108.653 95.5678 130.809 95.8965 153.401 96.107C154.308 96.1155 155.208 96.1267 156.103 96.1378C156.567 96.1436 157.028 96.1494 157.489 96.1547C163.412 95.9661 169.337 95.6708 175.25 95.2423C175.486 95.2027 175.723 95.1614 175.959 95.1185C175.991 95.1126 176.072 95.0961 176.19 95.0721C176.777 94.9521 178.288 94.6436 179.367 94.5148C179.703 94.4746 180.084 94.4399 180.438 94.4417C180.61 94.4426 180.85 94.4521 181.109 94.499C181.213 94.518 181.477 94.5672 181.788 94.7125ZM68.6141 95.3561C63.4187 94.4837 58.2227 93.4655 53.024 92.2758C52.1858 92.0839 51.2991 91.8847 50.3708 91.6762C42.3771 89.8804 31.3071 87.3936 21.6766 82.9746C10.9754 78.0644 1.26623 70.402 0.108067 57.9003C-1.25341 43.2038 10.4584 32.7691 23.4404 25.66C36.615 18.4455 52.2397 14.0063 60.9081 11.6229C101.538 0.451389 143.751 -1.08492 185.205 0.551299C218.059 1.84811 254.973 8.06423 284.088 26.0789C290.63 30.1268 297.438 36.5078 299.56 45.1018C300.835 50.2645 299.176 55.2576 296.662 59.4179C294.139 63.5927 290.594 67.2113 287.556 69.8141C277.98 78.0168 265.865 82.7515 254.905 87.035L254.569 87.1664C236.466 94.2422 218.642 98.3304 199.533 100.585C167.023 104.422 133.182 105.81 100.474 100.566C90.1266 100.02 79.8334 98.9036 70.1772 96.6113C69.4674 96.4428 68.9105 95.9662 68.6141 95.3561Z" fill="#FFD96C"/>
</svg>
