<svg width="32" height="32" viewBox="0 0 32 32" fill="none" xmlns="http://www.w3.org/2000/svg">
<path d="M7 18.8156H10V26.8019C10 27.3532 9.55228 27.8002 9 27.8002H8C7.44772 27.8002 7 27.3532 7 26.8019V18.8156Z" fill="#FB6F88"/>
<path d="M10 8.83275L24.7017 4.24633C25.3457 4.04545 26 4.52569 26 5.19918V22.4492C26 23.1227 25.3457 23.6029 24.7017 23.402L10 18.8156V8.83275Z" fill="#F75470"/>
<path d="M4 9.83104C4 9.2797 4.44772 8.83275 5 8.83275H10V18.8156H5C4.44772 18.8156 4 18.3687 4 17.8173V9.83104Z" fill="#FEBFCC"/>
<path d="M26 9.83104C27.1046 9.83104 28 10.7249 28 11.8276V15.8208C28 16.9234 27.1046 17.8173 26 17.8173V9.83104Z" fill="#FEBFCC"/>
</svg>
