<svg width="32" height="32" viewBox="0 0 32 32" fill="none" xmlns="http://www.w3.org/2000/svg">
<path d="M10.6375 26.6939L8.83279 27.4481L4.52458 23.1381L5.2785 21.3326L10.6375 26.6939Z" fill="#FFEEBD"/>
<path d="M15.1493 24.8083L13.3445 25.5625L6.40938 18.6245L7.16329 16.819L15.1493 24.8083Z" fill="#FFEEBD"/>
<path d="M19.661 22.9227L17.8563 23.6769L8.29417 14.1108L9.04809 12.3054L19.661 22.9227Z" fill="#FFEEBD"/>
<path d="M3.145 26.4872C2.52165 27.9799 4.01966 29.4785 5.51179 28.8549L8.84615 27.4615L4.54978 23.1633L5.30368 21.3578L10.6508 26.7072L13.3579 25.5759L6.43457 18.6497L7.18848 16.8442L15.1626 24.8216L17.8697 23.6903L8.31937 14.1361L9.07328 12.3306L19.6743 22.936L20.613 22.5438C21.8005 22.0474 22.1049 20.5043 21.1949 19.5938L12.4022 10.7975C11.4922 9.88708 9.94966 10.1916 9.45349 11.3797L3.145 26.4872Z" fill="#FFCF55"/>
<path fill-rule="evenodd" clip-rule="evenodd" d="M16.1729 3.00838C16.4144 2.9611 16.6486 3.11869 16.6959 3.36037C17.3754 6.83504 15.6156 10.3372 14.4363 11.1639C14.2347 11.3052 13.9568 11.2563 13.8155 11.0546C13.6742 10.8529 13.7231 10.5749 13.9247 10.4335C14.936 9.72464 16.4086 6.53587 15.821 3.5316C15.7738 3.28992 15.9313 3.05567 16.1729 3.00838Z" fill="#FFC74D"/>
<path fill-rule="evenodd" clip-rule="evenodd" d="M20.0351 17.8426C19.9043 17.6443 19.959 17.3774 20.1572 17.2466C23.0067 15.3651 26.0366 16.3891 27.2066 17.1384C27.4067 17.2665 27.465 17.5326 27.337 17.7327C27.2089 17.9327 26.943 17.9911 26.743 17.863C25.7397 17.2205 23.0947 16.3379 20.6309 17.9646C20.4327 18.0955 20.166 18.0408 20.0351 17.8426Z" fill="#F75470"/>
<path fill-rule="evenodd" clip-rule="evenodd" d="M24.5317 6.33382C24.6708 6.70868 24.4797 7.12535 24.105 7.26446C22.5403 7.84534 20.5161 9.06152 19.613 9.93683C18.7053 10.8166 17.995 11.8901 17.3009 13.2377C17.1178 13.5931 16.6814 13.7328 16.3261 13.5496C15.9708 13.3664 15.8312 12.9298 16.0143 12.5744C16.7472 11.1516 17.5427 9.92737 18.6059 8.89687C19.6737 7.8619 21.8778 6.54686 23.6014 5.90694C23.9762 5.76783 24.3927 5.95895 24.5317 6.33382Z" fill="#00ED65"/>
<path fill-rule="evenodd" clip-rule="evenodd" d="M19.6804 15.5116C19.6086 15.5873 19.5398 15.6598 19.474 15.7284C19.1971 16.0168 18.739 16.0261 18.4507 15.7492C18.1624 15.4722 18.1532 15.0139 18.43 14.7255C18.4959 14.6569 18.566 14.5827 18.6405 14.504C20.0271 13.038 22.938 9.96045 28.3816 10.7623C28.7771 10.8205 29.0504 11.1884 28.9922 11.584C28.934 11.9796 28.5662 12.2531 28.1708 12.1948C23.4809 11.504 21.0369 14.0812 19.6804 15.5116Z" fill="#2290F7"/>
<path d="M27.1022 14.9795C27.0897 15.4792 26.6746 15.8741 26.1752 15.8615C25.6757 15.8489 25.281 15.4337 25.2936 14.934C25.3062 14.4344 25.7212 14.0395 26.2207 14.0521C26.7201 14.0647 27.1148 14.4799 27.1022 14.9795Z" fill="#FFC74D"/>
<path d="M21.558 19.5474C21.5479 19.9471 21.2159 20.263 20.8163 20.2529C20.4167 20.2428 20.101 19.9106 20.1111 19.5109C20.1211 19.1112 20.4532 18.7953 20.8527 18.8054C21.2523 18.8154 21.568 19.1476 21.558 19.5474Z" fill="#2290F7"/>
<path d="M16.3435 12.2865C16.3373 12.5363 16.1297 12.7337 15.88 12.7274C15.6303 12.7211 15.4329 12.5135 15.4392 12.2637C15.4455 12.0139 15.653 11.8165 15.9028 11.8227C16.1525 11.829 16.3498 12.0366 16.3435 12.2865Z" fill="#2290F7"/>
<path d="M13.0162 10.4881C13.0049 10.9377 12.6313 11.2931 12.1818 11.2818C11.7323 11.2705 11.3771 10.8968 11.3884 10.4471C11.3997 9.99738 11.7733 9.64202 12.2228 9.65333C12.6723 9.66465 13.0275 10.0384 13.0162 10.4881Z" fill="#00ED65"/>
<path d="M20.0385 6.72274C20.0222 7.37229 19.4826 7.8856 18.8333 7.86925C18.1841 7.8529 17.671 7.31309 17.6873 6.66354C17.7036 6.014 18.2432 5.50069 18.8925 5.51704C19.5418 5.53338 20.0549 6.0732 20.0385 6.72274Z" fill="#F75470"/>
<path d="M21.3355 9.99481C21.3293 10.2446 21.1217 10.4421 20.872 10.4358C20.6223 10.4295 20.4249 10.2219 20.4312 9.97204C20.4375 9.72221 20.645 9.52479 20.8948 9.53108C21.1445 9.53736 21.3418 9.74498 21.3355 9.99481Z" fill="#FFC74D"/>
</svg>
