<svg width="93" height="32" viewBox="0 0 93 32" fill="none" xmlns="http://www.w3.org/2000/svg">
<path d="M83.5004 22.0392C84.0005 21.9473 84.4439 21.6088 84.6471 21.1021C84.7567 20.829 84.8519 20.5547 84.9348 20.28C84.542 20.9118 84.0533 21.4976 83.5004 22.0392Z" fill="#F75470"/>
<path d="M85.5617 14.6792C85.5452 13.7886 85.3537 12.3294 84.9156 11.2371C84.7849 10.9114 84.6056 10.5488 84.3538 10.2266C84.1068 9.91067 83.7028 9.5237 83.1027 9.36178C82.5721 9.21863 82.1007 9.28605 81.693 9.4633C83.4277 10.8078 84.8141 12.5121 85.5617 14.6792Z" fill="#F75470"/>
<path d="M36.9485 5.77751C37.9523 5.67241 38.9587 5.58064 39.9668 5.50153C39.9705 5.51635 39.9739 5.53127 39.9772 5.54628C40.4935 7.92204 40.4454 10.6777 40.4007 13.2344C40.3975 13.4167 40.3943 13.5979 40.3913 13.778C40.3452 16.5948 40.3502 19.155 40.9335 21.2629C41.1593 22.0789 40.6809 22.9233 39.8649 23.1488C39.0489 23.3743 38.2043 22.8956 37.9785 22.0795C37.2576 19.4745 37.2808 16.466 37.3257 13.7267C37.3279 13.5893 37.3302 13.4526 37.3325 13.3166L37.3327 13.3064C37.3778 10.624 37.4185 8.20899 36.9811 6.19639C36.9504 6.05541 36.9402 5.91475 36.9485 5.77751Z" fill="#F75470"/>
<path d="M10.8095 10.5937C10.6173 10.6159 10.4253 10.6524 10.235 10.7041C10.2134 10.6117 10.1752 10.479 10.1108 10.3447C10.077 10.2741 10.0033 10.1321 9.87089 9.98256C9.74629 9.84186 9.45148 9.56246 8.96655 9.48271C8.42581 9.39378 7.9962 9.60569 7.7511 9.80318C7.53483 9.97744 7.41922 10.1675 7.37156 10.2523C7.27243 10.4288 7.22979 10.5872 7.21707 10.6347C7.1979 10.7063 7.18552 10.7701 7.17768 10.8146C7.1618 10.9049 7.15039 10.9987 7.1416 11.0825C7.12357 11.2544 7.10701 11.4786 7.09087 11.749C7.071 12.0821 7.15899 12.3966 7.32464 12.6587C7.32675 12.7007 7.32888 12.7435 7.33103 12.7871C8.30931 11.9338 9.52743 11.2095 10.8095 10.5937Z" fill="#F75470"/>
<path fill-rule="evenodd" clip-rule="evenodd" d="M6.79754 15.7907C6.96187 15.3939 7.20317 15.0141 7.5108 14.6469C8.43188 13.5473 9.9339 12.5885 11.6971 11.7688C12.2258 11.523 12.7704 11.2929 13.3203 11.0777C14.4011 11.6254 15.2983 12.5549 15.8316 13.5919C16.4516 14.7978 16.7593 15.9787 16.6913 17.1067C16.6219 18.2585 16.1663 19.2433 15.4546 20.0252C14.343 21.2465 12.6754 21.9136 10.9563 22.2114C10.9797 22.4447 11.004 22.6691 11.0292 22.883C10.5269 22.5792 10.0394 22.255 9.57953 21.9024C8.30382 20.9242 7.28241 19.7582 6.764 18.2585C6.74054 18.1907 6.71904 18.1233 6.69946 18.0565C6.70108 17.9825 6.70264 17.906 6.70424 17.8272C6.71657 17.2205 6.73157 16.4827 6.79754 15.7907ZM13.1867 17.9611C12.7294 18.4636 11.8836 18.8955 10.717 19.1369C10.6296 17.7324 10.5592 16.2651 10.4992 14.9429C10.4886 14.7114 10.4784 14.4842 10.4685 14.2628L10.4606 14.0869C10.4835 14.0582 10.5069 14.0308 10.5309 14.0046C10.896 13.6073 11.26 13.5577 11.701 13.7121C12.2337 13.8986 12.7958 14.3919 13.1049 14.9931C13.548 15.8548 13.657 16.4852 13.6308 16.9211C13.6059 17.3333 13.4561 17.665 13.1867 17.9611Z" fill="#F75470"/>
<path d="M6.75593 21.166C6.86075 22.2149 7.05223 23.2357 7.30635 24.2369C8.65036 24.8502 10.0924 25.3368 11.5009 25.7382C11.4395 25.367 11.3731 24.9998 11.3192 24.7095C10.4304 24.2252 9.53215 23.6817 8.70615 23.0483C7.99458 22.5027 7.32614 21.8828 6.75593 21.166Z" fill="#F75470"/>
<path d="M7.82811 26.0253C7.96989 26.4587 8.12109 26.8892 8.27963 27.3176C8.40165 27.6473 8.52198 27.9431 8.6421 28.1671C8.68675 28.2504 8.80726 28.4731 9.01283 28.6716C9.10671 28.7622 9.37739 29.0068 9.81421 29.0922C10.3889 29.2044 10.9125 28.9827 11.242 28.636C11.4952 28.3695 11.5869 28.0849 11.6182 27.9777C11.6579 27.8419 11.6739 27.7237 11.6815 27.6503C11.6956 27.514 11.6951 27.3847 11.692 27.2881C10.4253 26.9438 9.10364 26.5321 7.82811 26.0253Z" fill="#F75470"/>
<path fill-rule="evenodd" clip-rule="evenodd" d="M82.0045 21.4596C81.689 21.0445 81.5932 20.4789 81.8013 19.9599C82.3518 18.5874 82.4066 17.1712 82.4763 15.3682C82.4825 15.2088 82.4888 15.0464 82.4955 14.8807C82.5035 14.6857 82.4823 14.2545 82.4042 13.7346C82.3799 13.5729 82.3518 13.4137 82.3203 13.2606C82.0702 13.7811 81.8493 14.4078 81.6653 15.1027C81.4052 16.0848 81.2422 17.1135 81.1595 17.9943C81.1217 18.5944 81.0756 19.1807 81.0481 19.4963C81.039 19.601 81.0284 19.7173 81.0197 19.7845C81.0184 19.7943 81.0145 19.8248 81.0079 19.862C81.0054 19.8759 80.9967 19.9249 80.9807 19.986C80.9738 20.012 80.9543 20.085 80.9179 20.1745C80.8978 20.2216 80.8402 20.3373 80.8009 20.4046C80.7287 20.5109 80.4832 20.7715 80.2962 20.9058C79.9382 21.0654 79.114 21.0811 78.7082 20.9108C78.4765 20.7402 78.1906 20.3979 78.1145 20.2579C78.0151 20.0502 77.9876 19.8657 77.9831 19.8351L77.9826 19.8321C77.9674 19.7345 77.9653 19.6551 77.9648 19.6398L77.9648 19.6383C77.9635 19.5918 77.9646 19.5537 77.9648 19.5436L77.9649 19.5429C77.9662 19.4962 77.9698 19.4399 77.9724 19.3995C77.9851 19.2066 78.0195 18.7548 78.0859 17.9446C78.091 17.8824 78.0965 17.8194 78.1023 17.7557C78.1193 17.4829 78.1342 17.2106 78.1441 16.9676C78.1523 16.7666 78.1599 16.0786 78.1266 15.2941L78.1088 15.3294C77.5472 16.4434 77.1245 17.5809 77.0016 18.084C76.9482 18.3026 76.8911 18.8134 76.8457 19.3625L76.7819 20.4312C76.7785 20.4888 76.7754 20.5367 76.7727 20.5742C76.7714 20.5923 76.7699 20.6129 76.7681 20.6332C76.7672 20.6431 76.7658 20.6577 76.764 20.6746L76.7639 20.6754C76.7628 20.6855 76.7583 20.7271 76.7494 20.7778L76.7491 20.7794C76.7464 20.7953 76.7308 20.8863 76.695 20.9949L76.6941 20.9977C76.6844 21.0282 76.6145 21.2487 76.4384 21.4699C76.3069 21.615 75.873 21.9108 75.5586 22.0143C75.1379 22.0446 74.4334 21.8191 74.1777 21.621C74.0489 21.4811 73.8826 21.2294 73.8342 21.1287C73.8073 21.0631 73.769 20.9504 73.756 20.9041C73.7324 20.8141 73.7223 20.7418 73.7186 20.7138C73.7103 20.6503 73.7078 20.6 73.7071 20.585C73.7044 20.5269 73.7055 20.475 73.7056 20.4678L73.7057 20.467C73.7063 20.4326 73.7078 20.3922 73.7093 20.3553C73.7158 20.2002 73.7314 19.9107 73.755 19.571C73.7641 19.44 73.7749 19.2917 73.7878 19.1339L73.8842 17.5178C73.8893 17.433 73.896 17.3012 73.9044 17.134L73.9045 17.1325C73.9379 16.475 73.9989 15.273 74.097 14.241C74.1565 13.6147 74.2395 12.9307 74.3671 12.4448C74.4008 12.3165 74.4483 12.159 74.5174 12.0007C74.5687 11.8831 74.7102 11.574 75.0149 11.3177C75.1881 11.1719 75.4614 11.004 75.8304 10.9521C76.215 10.8979 76.5592 10.9901 76.821 11.1325C76.9273 11.1903 77.02 11.256 77.1005 11.3243C77.3433 11.0749 77.6178 10.8451 77.9228 10.6747C78.1887 10.5261 78.5447 10.4072 78.9605 10.436C79.3813 10.4651 79.7236 10.6359 79.9718 10.8337C80.0192 10.8715 80.0638 10.9108 80.1059 10.9511C80.1577 10.8721 80.2108 10.7944 80.2653 10.7182C80.3408 10.6125 80.4269 10.4997 80.5233 10.3855C82.241 11.6447 83.5567 13.2275 84.2262 15.2198C84.7289 16.716 84.5349 18.0236 83.9007 19.1963C83.4633 20.0052 82.8092 20.7608 82.0045 21.4596ZM73.7139 20.3621C73.7129 20.3724 73.7124 20.3786 73.7125 20.3791C73.7125 20.3791 73.7126 20.378 73.7129 20.3746L73.7139 20.3621Z" fill="#F75470"/>
<path fill-rule="evenodd" clip-rule="evenodd" d="M50.5483 13.2138C50.5337 13.1671 50.5196 13.1215 50.5059 13.077C50.4422 12.5628 50.3468 12.1292 50.2653 11.8335C50.2162 11.6551 50.1335 11.3795 50.0105 11.1542L50.0083 11.1502C49.9843 11.1059 49.8758 10.9058 49.6717 10.7219C49.5786 10.6379 49.2672 10.3722 48.7699 10.329C48.1283 10.2734 47.652 10.6113 47.4053 10.9398C47.032 11.0511 46.693 11.2262 46.4055 11.4056C46.0006 11.6582 45.6053 11.9778 45.2347 12.3259C44.4938 13.0218 43.7627 13.9152 43.154 14.8553C42.5495 15.7888 42.0192 16.84 41.7386 17.8611C41.4757 18.8177 41.3372 20.1028 42.0321 21.1792C42.3943 21.7403 42.8756 22.2377 43.5169 22.5176C44.187 22.8102 44.8651 22.7926 45.4564 22.6056C46.5142 22.2712 47.3485 21.3832 47.9183 20.6485C48.4199 20.0017 48.8781 19.2561 49.2586 18.5503C50.0618 20.0192 51.2594 21.2962 53.2231 21.9847C54.0222 22.2648 54.8968 21.8442 55.1767 21.0453C55.4565 20.2463 55.0356 19.3715 54.2365 19.0914C53.1256 18.7019 52.462 18.0229 51.9431 17.07C51.4633 16.1888 51.1489 15.1652 50.7676 13.9236L50.7673 13.9226L50.767 13.9217C50.6969 13.6933 50.6245 13.4575 50.5483 13.2138ZM47.3342 14.5611C47.3937 14.5053 47.4516 14.4528 47.5078 14.4036C47.4961 14.7209 47.4542 15.0378 47.3674 15.3255C47.2333 15.7699 46.4501 17.5377 45.4952 18.7691C45.1252 19.2462 44.8403 19.4948 44.6706 19.6078C44.6524 19.5833 44.632 19.5543 44.6097 19.5198C44.6108 19.5215 44.6116 19.5222 44.6116 19.5222C44.6116 19.5222 44.6114 19.5203 44.6103 19.5166C44.6001 19.4788 44.5375 19.248 44.6951 18.6746C44.8667 18.0501 45.2311 17.2895 45.7278 16.5223C46.2203 15.7617 46.7969 15.0658 47.3342 14.5611Z" fill="#F75470"/>
<path fill-rule="evenodd" clip-rule="evenodd" d="M19.7143 11.2826C20.1747 10.5723 21.124 10.3698 21.8345 10.8304C22.874 11.5043 23.9995 12.2899 24.7932 13.3759C25.6435 14.5395 26.043 15.9405 25.8639 17.687C25.7271 19.0203 24.896 20.2077 23.9453 20.9752C22.9984 21.7397 21.597 22.3498 20.132 21.9863C18.6073 21.608 17.7638 20.4373 17.3846 19.2594C17.0149 18.1108 17.0189 16.8083 17.2231 15.6596C17.4264 14.516 17.862 13.3349 18.5398 12.4587C18.8076 12.1125 19.1657 11.7597 19.5987 11.496C19.631 11.4231 19.6695 11.3517 19.7143 11.2826ZM21.3149 14.2024C21.2482 14.1946 21.1814 14.1824 21.1148 14.1655C21.0798 14.198 21.0303 14.251 20.9653 14.3351C20.6778 14.7068 20.3874 15.3783 20.2418 16.1972C20.0972 17.0111 20.1295 17.7812 20.3032 18.3209C20.4674 18.8311 20.6825 18.9642 20.8694 19.0105C21.0715 19.0607 21.5053 19.0039 22.0188 18.5894C22.5285 18.1779 22.7829 17.6743 22.8138 17.373C22.9212 16.3258 22.6894 15.6927 22.3179 15.1844C22.0735 14.8499 21.7447 14.5355 21.3149 14.2024ZM21.1803 14.1196C21.1801 14.1223 21.1689 14.1309 21.1476 14.1375C21.17 14.1203 21.1806 14.117 21.1803 14.1196Z" fill="#F75470"/>
<path fill-rule="evenodd" clip-rule="evenodd" d="M33.9963 22.2067C35.4495 21.3163 36.0381 19.7385 36.1914 18.3211C36.3474 16.8789 36.0969 15.3167 35.5781 13.9971C35.0802 12.7303 34.2095 11.3801 32.879 10.7663C32.1682 10.4384 31.3583 10.3413 30.5266 10.574C29.7214 10.7993 29.0099 11.3006 28.3895 11.9709C28.1582 12.2207 28.026 12.527 27.9911 12.8413C27.5686 13.4308 27.2613 14.0859 27.0537 14.746C26.6125 16.1483 26.573 17.7041 26.8929 19.0735C27.2052 20.4105 27.9261 21.8157 29.2458 22.5726C30.6772 23.3935 32.3633 23.2074 33.9963 22.2067ZM31.2941 13.9068C31.4478 13.8271 31.5823 13.725 31.6957 13.6065C31.9796 13.7917 32.389 14.2638 32.7246 15.1178C33.0815 16.0255 33.2404 17.0905 33.1431 17.9905C33.0431 18.9153 32.7158 19.395 32.3936 19.5924C31.4225 20.1874 30.9631 20.0236 30.7705 19.9131C30.4663 19.7386 30.0846 19.2588 29.8786 18.3771C29.6802 17.5277 29.7067 16.531 29.9785 15.667C30.2498 14.8046 30.7174 14.2062 31.2941 13.9068Z" fill="#F75470"/>
<path fill-rule="evenodd" clip-rule="evenodd" d="M61.508 15.8943C62.4355 14.1584 61.8108 12.0989 60.6691 10.9328C60.0595 10.3102 59.1988 9.82334 58.1673 9.79318C57.1161 9.76244 56.1227 10.2124 55.2809 11.0216L55.1695 11.1286L55.0818 11.2557C52.8959 14.4214 53.6814 18.0063 55.7417 20.1505C56.7702 21.2208 58.1554 21.9797 59.7054 22.1394C61.1951 22.2929 62.7374 21.8814 64.1271 20.8247C64.3816 21.0763 64.6611 21.3119 64.9662 21.5285C66.3496 22.5105 67.7934 23.2551 69.3581 22.9766C70.88 22.7056 72.0207 21.5443 73.0509 20.2455C73.577 19.5824 73.4657 18.6181 72.8023 18.0918C72.1389 17.5655 71.1746 17.6764 70.6486 18.3396C69.6308 19.6225 69.1138 19.9057 68.8197 19.958C68.5684 20.0028 68.0379 19.9496 66.7403 19.0285C66.3195 18.7298 65.9785 18.3481 65.7221 17.912C66.1805 17.8537 66.6245 17.7381 67.0224 17.6012C67.8786 17.3066 68.7452 16.8366 69.4343 16.2569C70.0629 15.7281 70.831 14.863 70.8986 13.7294C70.9691 12.5484 70.5943 11.4932 69.7584 10.7728C68.9729 10.0957 67.9803 9.88786 67.1152 9.91289C65.4767 9.96031 63.455 10.8951 62.6929 12.7346C62.3936 13.4572 62.203 14.2323 62.1294 15.0211C62.1187 15.0916 62.1128 15.1636 62.1122 15.2367C62.0461 16.237 62.1682 17.2534 62.4951 18.2075C62.4685 18.2268 62.4423 18.2471 62.4166 18.2683C61.5629 18.9733 60.7342 19.1633 60.0186 19.0895C59.2761 19.013 58.5407 18.639 57.9522 18.0266C57.9303 18.0038 57.9087 17.9808 57.8874 17.9575C58.5052 17.9028 59.1197 17.7424 59.6665 17.4975C60.3346 17.1984 61.0831 16.6895 61.508 15.8943ZM56.8998 14.815C56.8962 14.798 56.8918 14.7683 56.8913 14.7229C56.9765 14.1967 57.1769 13.6597 57.5149 13.1336C57.8302 12.8651 58.0224 12.8562 58.0788 12.8579C58.1612 12.8603 58.3047 12.8997 58.4787 13.0773C58.6567 13.2592 58.8022 13.5276 58.8607 13.8136C58.9185 14.0962 58.8768 14.3116 58.8036 14.4487C58.8069 14.4426 58.8064 14.443 58.801 14.4488C58.7794 14.4719 58.6783 14.5803 58.4128 14.6991C58.1086 14.8353 57.7372 14.9149 57.4038 14.9124C57.0978 14.91 56.9462 14.8424 56.8998 14.815ZM65.2365 14.8808C65.4284 14.865 65.6942 14.8154 66.0238 14.702C66.5636 14.5162 67.0902 14.2215 67.46 13.9104C67.7312 13.6823 67.8142 13.5377 67.8363 13.4992L67.8384 13.4956L67.8404 13.4922C67.8457 13.3095 67.8183 13.2087 67.8016 13.1645C67.7853 13.1215 67.7699 13.1059 67.7572 13.0949C67.7204 13.0632 67.5615 12.9673 67.205 12.9776C66.8602 12.9876 66.4648 13.0985 66.1282 13.2961C65.7893 13.4949 65.6019 13.7248 65.5256 13.909C65.3937 14.2275 65.2977 14.5536 65.2365 14.8808Z" fill="#F75470"/>
<path fill-rule="evenodd" clip-rule="evenodd" d="M86.6566 9.25192C78.0074 3.90029 66.9411 2.00612 56.9295 1.61095C44.2373 1.10997 31.417 1.58653 19.1212 4.96738C16.4491 5.70208 11.7912 7.03143 7.90156 9.16144C3.95263 11.3239 1.13497 14.1176 1.46518 17.682C1.74783 20.7331 4.11276 22.7712 7.26798 24.219C9.96067 25.4545 13.0531 26.178 15.4826 26.7259C14.6994 26.3938 13.9236 26.0383 13.157 25.6563C11.7335 24.9468 10.1153 24.1281 8.70708 23.0484C7.29145 21.9629 6.04652 20.5835 5.40619 18.7311C4.73343 16.7849 5.2564 15.097 6.4107 13.719C7.53376 12.3784 9.26215 11.3114 11.0933 10.4601C14.1203 9.05288 17.6598 8.13647 19.7619 7.59222C20.2047 7.47757 20.5837 7.37944 20.8807 7.29672C34.8376 3.40926 50.1939 3.08165 64.447 4.28287C67.7345 4.55993 72.2946 5.13455 76.3759 6.63239C80.4422 8.12473 84.1902 10.5936 85.5899 14.7591C86.2285 16.6596 85.978 18.3823 85.1658 19.8841C84.3674 21.3604 83.0423 22.5976 81.5597 23.6184C81.0241 23.9871 80.4614 24.3319 79.8858 24.6533C82.6399 23.5352 85.3396 22.2733 87.5447 20.3844C88.414 19.6398 89.3826 18.6406 90.0508 17.5348C90.7216 16.4246 91.0403 15.2927 90.7765 14.2242C90.2542 12.109 88.527 10.4093 86.6566 9.25192ZM55.9349 29.1423C61.4326 28.6484 66.8843 27.7513 72.1776 26.2243C74.3614 25.5944 77.9757 24.3363 80.7459 22.4291C82.1301 21.4762 83.2536 20.3946 83.9017 19.1964C84.5359 18.0237 84.7298 16.7161 84.2271 15.2198C83.0349 11.6719 79.7929 9.42242 75.8818 7.987C71.9856 6.55709 67.5808 5.9945 64.3266 5.72024C50.164 4.52665 34.9958 4.86222 21.2655 8.68655C20.9397 8.77732 20.5359 8.88205 20.0725 9.00229C17.9548 9.55163 14.5893 10.4247 11.698 11.7688C9.93483 12.5885 8.43281 13.5474 7.51174 14.6469C6.62189 15.7092 6.28698 16.876 6.76493 18.2586C7.28334 19.7583 8.30476 20.9243 9.58046 21.9024C10.8636 22.8863 12.3617 23.6493 13.7969 24.3645C17.8574 26.388 22.2129 27.6549 26.6559 28.6527C33.4318 29.4055 40.249 29.5066 47.2003 29.5714C47.4794 29.574 47.7565 29.5774 48.0318 29.5809C48.1744 29.5826 48.3165 29.5844 48.4581 29.5861C50.2806 29.528 52.1037 29.4372 53.9232 29.3053C53.9958 29.2931 54.0685 29.2804 54.1412 29.2672C54.1512 29.2654 54.176 29.2604 54.2123 29.253C54.393 29.216 54.858 29.1211 55.1898 29.0815C55.2932 29.0691 55.4106 29.0584 55.5193 29.059C55.5724 29.0593 55.6462 29.0622 55.7257 29.0766C55.758 29.0825 55.8392 29.0976 55.9349 29.1423ZM21.112 29.3403C19.5134 29.0719 17.9147 28.7586 16.3151 28.3925C16.0572 28.3335 15.7843 28.2722 15.4987 28.2081C13.0391 27.6555 9.63296 26.8903 6.66972 25.5307C3.37704 24.0198 0.389608 21.6622 0.0332515 17.8155C-0.385663 13.2935 3.21798 10.0828 7.21244 7.8954C11.2662 5.67555 16.0738 4.30963 18.741 3.57627C31.2424 0.138889 44.2311 -0.33382 56.986 0.16963C67.0952 0.568649 78.4532 2.4813 87.4116 8.02429C89.4245 9.26978 91.5195 11.2332 92.1724 13.8775C92.5647 15.466 92.0541 17.0023 91.2806 18.2824C90.5045 19.567 89.4136 20.6804 88.4786 21.4813C85.5322 24.0052 81.8046 25.462 78.4323 26.78L78.3289 26.8204C72.7588 28.9976 67.2744 30.2555 61.3949 30.9493C51.3916 32.1298 40.9792 32.5569 30.915 30.9435C27.7313 30.7755 24.5641 30.4319 21.593 29.7266C21.3746 29.6747 21.2032 29.5281 21.112 29.3403Z" fill="#FFD96C"/>
</svg>
