<svg width="32" height="32" viewBox="0 0 32 32" fill="none" xmlns="http://www.w3.org/2000/svg">
<path fill-rule="evenodd" clip-rule="evenodd" d="M16 24C20.4183 24 24 20.4183 24 16C24 11.5817 20.4183 8 16 8C11.5817 8 8 11.5817 8 16C8 20.4183 11.5817 24 16 24ZM16 26C21.5228 26 26 21.5228 26 16C26 10.4772 21.5228 6 16 6C10.4772 6 6 10.4772 6 16C6 21.5228 10.4772 26 16 26Z" fill="#5F5C5D"/>
<path d="M22 16C22 19.3137 19.3137 22 16 22C12.6863 22 10 19.3137 10 16C10 12.6863 12.6863 10 16 10C19.3137 10 22 12.6863 22 16Z" fill="#5F5C5D"/>
</svg>
