<svg width="32" height="32" viewBox="0 0 32 32" fill="none" xmlns="http://www.w3.org/2000/svg">
<path d="M16.083 8.69574C16.1398 8.55909 16.2229 8.43496 16.3276 8.33047C16.4321 8.22571 16.5562 8.1426 16.6929 8.0859C16.8296 8.02919 16.9761 8 17.124 8C17.272 8 17.4185 8.02919 17.5551 8.0859C17.6918 8.1426 17.8159 8.22571 17.9204 8.33047L24.6695 15.0796C24.7743 15.1841 24.8574 15.3082 24.9141 15.4449C24.9708 15.5815 25 15.728 25 15.876C25 16.0239 24.9708 16.1704 24.9141 16.3071C24.8574 16.4438 24.7743 16.5679 24.6695 16.6724L17.9204 23.4215C17.8158 23.5261 17.6917 23.609 17.555 23.6656C17.4184 23.7222 17.2719 23.7514 17.124 23.7514C16.9761 23.7514 16.8297 23.7222 16.693 23.6656C16.5564 23.609 16.4322 23.5261 16.3276 23.4215C16.223 23.3169 16.1401 23.1928 16.0835 23.0561C16.0269 22.9195 15.9977 22.773 15.9977 22.6251C15.9977 22.4772 16.0269 22.3307 16.0835 22.1941C16.1401 22.0574 16.223 21.9333 16.3276 21.8287L21.1582 17H8.12485C7.82652 17 7.54041 16.8816 7.32946 16.6708C7.11851 16.46 7 16.1742 7 15.8761C7 15.578 7.11851 15.2921 7.32946 15.0814C7.54041 14.8706 7.82652 14.7522 8.12485 14.7522H21.1584L16.3276 9.92326C16.2229 9.81877 16.1398 9.69464 16.083 9.55798C16.0263 9.42132 15.9972 9.27482 15.9972 9.12686C15.9972 8.97891 16.0263 8.8324 16.083 8.69574Z" fill="#5F5C5D"/>
</svg>
