<svg width="32" height="32" viewBox="0 0 32 32" fill="none" xmlns="http://www.w3.org/2000/svg">
<path d="M25.7526 14.4801L23.5171 13.8134C23.3626 13.2743 23.15 12.7535 22.8832 12.2601L23.9776 10.2134C24.0186 10.1362 24.0337 10.0478 24.0204 9.96129C24.0072 9.87482 23.9664 9.79492 23.9042 9.73344L22.3093 8.13344C22.2477 8.07121 22.1677 8.03048 22.0812 8.01727C21.9946 8.00406 21.9061 8.01908 21.8288 8.0601L19.7935 9.14677C19.2947 8.86721 18.7666 8.64363 18.2186 8.4801L17.5513 6.27344C17.5231 6.19211 17.4697 6.12183 17.399 6.07272C17.3282 6.0236 17.2437 5.99817 17.1576 6.0001H14.902C14.8154 6.00051 14.7311 6.02853 14.6615 6.08008C14.5919 6.13164 14.5406 6.20405 14.515 6.28677L13.8477 8.48677C13.2951 8.64942 12.7625 8.87302 12.2594 9.15344L10.2575 8.07344C10.1802 8.03241 10.0917 8.01739 10.0051 8.0306C9.91855 8.04381 9.83857 8.08455 9.77702 8.14677L8.15544 9.72677C8.09316 9.78825 8.05238 9.86815 8.03916 9.95462C8.02593 10.0411 8.04097 10.1295 8.08203 10.2068L9.16309 12.2068C8.88285 12.7072 8.65905 13.2371 8.49577 13.7868L6.28695 14.4534C6.20415 14.479 6.13167 14.5303 6.08006 14.5998C6.02845 14.6693 6.0004 14.7535 6 14.8401V17.0934C6.0004 17.18 6.02845 17.2642 6.08006 17.3337C6.13167 17.4033 6.20415 17.4546 6.28695 17.4801L8.50912 18.1468C8.67418 18.6873 8.89795 19.2082 9.17644 19.7001L8.08203 21.7934C8.04097 21.8707 8.02593 21.9591 8.03916 22.0456C8.05238 22.132 8.09316 22.212 8.15544 22.2734L9.75033 23.8668C9.81187 23.929 9.89186 23.9697 9.97841 23.9829C10.065 23.9961 10.1535 23.9811 10.2308 23.9401L12.2928 22.8401C12.7806 23.1031 13.2951 23.3131 13.8276 23.4668L14.495 25.7134C14.5205 25.7962 14.5719 25.8686 14.6415 25.9201C14.7111 25.9717 14.7954 25.9997 14.882 26.0001H17.1376C17.2242 25.9997 17.3085 25.9717 17.3781 25.9201C17.4477 25.8686 17.499 25.7962 17.5246 25.7134L18.1919 23.4601C18.7199 23.3057 19.2299 23.0956 19.7134 22.8334L21.7888 23.9401C21.8661 23.9811 21.9546 23.9961 22.0412 23.9829C22.1277 23.9697 22.2077 23.929 22.2692 23.8668L23.8641 22.2734C23.9264 22.212 23.9672 22.132 23.9804 22.0456C23.9936 21.9591 23.9786 21.8707 23.9375 21.7934L22.8298 19.7268C23.0949 19.2419 23.3075 18.7301 23.4637 18.2001L25.7126 17.5334C25.7954 17.5079 25.8679 17.4566 25.9195 17.3871C25.9711 17.3175 25.9991 17.2333 25.9995 17.1468V14.8734C26.0035 14.7905 25.9819 14.7084 25.9378 14.6381C25.8937 14.5678 25.829 14.5127 25.7526 14.4801ZM16.0298 19.6668C15.3039 19.6668 14.5943 19.4517 13.9907 19.0488C13.3871 18.6459 12.9167 18.0733 12.6389 17.4033C12.3611 16.7333 12.2885 15.996 12.4301 15.2848C12.5717 14.5735 12.9212 13.9202 13.4345 13.4074C13.9478 12.8946 14.6018 12.5454 15.3138 12.4039C16.0257 12.2624 16.7637 12.335 17.4343 12.6125C18.105 12.8901 18.6782 13.36 19.0815 13.963C19.4848 14.566 19.7001 15.2749 19.7001 16.0001C19.7001 16.9726 19.3134 17.9052 18.6251 18.5928C17.9368 19.2805 17.0032 19.6668 16.0298 19.6668Z" fill="#5F5C5D"/>
</svg>
