<svg width="32" height="32" viewBox="0 0 32 32" fill="none" xmlns="http://www.w3.org/2000/svg">
<path d="M14.44 4C8.12186 4 3.00001 9.13899 3.00001 15.4783C3.00001 18.0913 3.87025 20.5004 5.33584 22.4298L3.13671 26.4272C2.62636 27.3549 3.643 28.3749 4.56763 27.8628L8.8463 25.4932C10.5001 26.4251 12.4082 26.9565 14.44 26.9565H17.56C23.8782 26.9565 29 21.8175 29 15.4783C29 9.13899 23.8782 4 17.56 4H14.44Z" fill="#F0F0F0"/>
<path d="M12.672 15.4783C12.672 16.1698 12.1133 16.7304 11.424 16.7304C10.7347 16.7304 10.176 16.1698 10.176 15.4783C10.176 14.7867 10.7347 14.2261 11.424 14.2261C12.1133 14.2261 12.672 14.7867 12.672 15.4783Z" fill="#868383"/>
<path d="M17.248 15.4783C17.248 16.1698 16.6892 16.7304 16 16.7304C15.3107 16.7304 14.752 16.1698 14.752 15.4783C14.752 14.7867 15.3107 14.2261 16 14.2261C16.6892 14.2261 17.248 14.7867 17.248 15.4783Z" fill="#868383"/>
<path d="M20.576 16.7304C21.2652 16.7304 21.824 16.1698 21.824 15.4783C21.824 14.7867 21.2652 14.2261 20.576 14.2261C19.8867 14.2261 19.328 14.7867 19.328 15.4783C19.328 16.1698 19.8867 16.7304 20.576 16.7304Z" fill="#868383"/>
</svg>
