<svg width="32" height="32" viewBox="0 0 32 32" fill="none" xmlns="http://www.w3.org/2000/svg">
<path d="M16.0001 6C16.7969 5.99988 17.565 6.30604 18.1535 6.85834C18.7421 7.41064 19.1085 8.1692 19.181 8.98507H24.1293C24.35 8.98514 24.5624 9.07134 24.7236 9.22624C24.8849 9.38114 24.9829 9.59319 24.998 9.81956C25.013 10.0459 24.9439 10.2697 24.8047 10.4457C24.6654 10.6217 24.4664 10.7368 24.2477 10.7678L24.1293 10.7761H23.4522L21.9809 23.8866C21.9153 24.4685 21.644 25.0054 21.2186 25.3951C20.7931 25.7848 20.2431 26.0001 19.6733 26H12.3269C11.7571 26.0001 11.2072 25.7848 10.7817 25.3951C10.3562 25.0054 10.0849 24.4685 10.0194 23.8866L8.54686 10.7761H7.87098C7.66051 10.7761 7.45716 10.6977 7.29854 10.5555C7.13992 10.4133 7.03675 10.2168 7.00813 10.0024L7 9.8806C7.00001 9.66419 7.07623 9.45511 7.21457 9.29202C7.35291 9.12893 7.54401 9.02286 7.75253 8.99343L7.87098 8.98507H12.8193C12.8917 8.1692 13.2582 7.41064 13.8467 6.85834C14.4352 6.30604 15.2033 5.99988 16.0001 6ZM14.2582 13.4627C13.9737 13.4627 13.7356 13.6478 13.6868 13.8913L13.6775 13.9857V21.2991L13.6868 21.3922C13.7356 21.6358 13.9737 21.8209 14.2582 21.8209C14.5427 21.8209 14.7808 21.6358 14.8295 21.3922L14.8388 21.2979V13.9869L14.8295 13.8913C14.7808 13.649 14.5427 13.4627 14.2582 13.4627ZM17.7421 13.4627C17.4576 13.4627 17.2195 13.6478 17.1707 13.8913L17.1614 13.9857V21.2991L17.1707 21.3922C17.2195 21.6358 17.4576 21.8209 17.7421 21.8209C18.0266 21.8209 18.2647 21.6358 18.3135 21.3922L18.3227 21.2979V13.9869L18.3135 13.8913C18.2647 13.649 18.0266 13.4639 17.7421 13.4639V13.4627ZM16.0001 7.79104C15.2975 7.79104 14.7111 8.30448 14.5775 8.98507H17.4227C17.288 8.30448 16.7027 7.79104 16.0001 7.79104Z" fill="#5F5C5D"/>
</svg>
