<svg width="32" height="32" viewBox="0 0 32 32" fill="none" xmlns="http://www.w3.org/2000/svg">
<path fill-rule="evenodd" clip-rule="evenodd" d="M18.7099 6.27381C17.7277 4.5754 15.2723 4.5754 14.2901 6.27381L4.34568 23.4702C3.36351 25.1687 4.59122 27.2917 6.55555 27.2917H26.4444C28.4088 27.2917 29.6365 25.1686 28.6543 23.4702L18.7099 6.27381ZM15 11.5625C15 10.6996 15.6996 10 16.5625 10C17.4254 10 18.125 10.6996 18.125 11.5625L18.0208 18.9583C18.0208 19.8213 17.4254 20.4167 16.5625 20.4167C15.6996 20.4167 15.1042 19.8213 15.1042 18.9583L15 11.5625ZM18.0208 23.0208C18.0208 23.8262 17.3679 24.4792 16.5625 24.4792C15.7571 24.4792 15.1042 23.8262 15.1042 23.0208C15.1042 22.2154 15.7571 21.5625 16.5625 21.5625C17.3679 21.5625 18.0208 22.2154 18.0208 23.0208Z" fill="#5F5C5D"/>
</svg>
